<svg width="239" height="372" viewBox="0 0 239 372" fill="none" xmlns="http://www.w3.org/2000/svg">
<path d="M49.3617 238.243C40.3121 264.111 12.6832 280.501 0 285.463C16.4539 288.884 53.578 294.804 91.0106 274.684C128.443 254.564 145 206.934 145 183.324V53.9814C143.8 41.3209 133.894 16 103.865 16C73.8369 16 62.5591 41.3209 60.6738 53.9814C60.8452 88.7122 61.0851 160.535 60.6738 169.979C60.1596 181.784 60.6738 205.907 49.3617 238.243Z" fill="#EF9F00"/>
<path d="M216.191 83.8498C220.373 93.6097 233.139 99.7935 239 101.665C231.397 102.956 214.243 105.19 196.947 97.5988C179.65 90.0078 172 72.0372 172 63.1294V14.33C172.554 9.55332 177.132 0 191.007 0C204.882 0 210.093 9.55332 210.965 14.33C210.885 27.4335 210.774 54.5314 210.965 58.0945C211.202 62.5485 210.965 71.6499 216.191 83.8498Z" fill="#BB024D"/>
<path d="M150.83 317.255C163.148 312.075 170.953 296.26 173.316 289C174.945 298.418 177.764 319.669 168.183 341.096C158.602 362.523 135.921 372 124.678 372H63.0864C57.0576 371.313 45 365.643 45 348.454C45 331.265 57.0576 324.81 63.0864 323.73C79.6248 323.829 113.826 323.966 118.323 323.73C123.945 323.436 135.432 323.73 150.83 317.255Z" fill="#FFC403"/>
</svg>
