<svg width="20" height="20" viewBox="0 0 20 20" fill="none" xmlns="http://www.w3.org/2000/svg">
<path d="M1.97887 4.60373C2.36946 4.60373 2.74593 4.44844 3.02357 4.17079C3.30122 3.89314 3.45651 3.51903 3.45651 3.12608C3.45651 2.73314 3.30122 2.35903 3.02357 2.08138C2.74593 1.80373 2.37181 1.64844 1.97887 1.64844C1.58593 1.64844 1.21181 1.80373 0.934162 2.08138C0.656515 2.35903 0.501221 2.73314 0.501221 3.12608C0.501221 3.51903 0.656515 3.89314 0.934162 4.17079C1.21181 4.44844 1.58593 4.60373 1.97887 4.60373Z" fill="#EF9E00"/>
<path d="M5.81631 13.1303C5.74808 12.9232 5.55514 12.782 5.33632 12.782H3.06573V7.8526C3.59749 8.36084 3.83279 8.8126 3.85161 8.85025C3.93396 9.02437 4.11043 9.1326 4.30337 9.1326H6.51043C6.79043 9.1326 7.01396 8.90672 7.01396 8.62907C7.01396 8.35143 6.78808 8.1279 6.51043 8.1279H4.58808C4.18337 7.49731 2.99749 6.00084 0.606903 5.50672C0.336315 5.45025 0.0704326 5.62437 0.013962 5.89731C0.013962 5.90437 0.013962 5.90907 0.013962 5.91613C0.00690315 5.94907 0.00219727 5.98437 0.00219727 6.02202V11.695C0.00219727 12.2597 0.221021 12.7891 0.621021 13.1891C1.02102 13.5891 1.55043 13.8079 2.11514 13.8079H2.13396C2.13396 13.8079 2.15043 13.8079 2.16455 13.8032L2.45867 13.7844C2.47279 13.7844 2.4869 13.7891 2.50102 13.7891H4.4822L4.0422 18.182C4.01396 18.4738 4.22573 18.7326 4.51749 18.7608C4.53631 18.7608 4.55279 18.7632 4.57161 18.7632C4.83984 18.7632 5.07043 18.5585 5.09867 18.2855L5.41161 15.1444L6.4022 18.2008C6.47043 18.4126 6.66808 18.5491 6.87984 18.5491C6.93161 18.5491 6.98573 18.5397 7.03514 18.5232C7.29867 18.4385 7.44455 18.1538 7.35749 17.8903L5.81396 13.1279L5.81631 13.1303ZM1.0069 11.695V6.6526C1.40455 6.77966 1.75514 6.93496 2.06102 7.10907V12.8008C1.78573 12.7867 1.52926 12.6738 1.33396 12.4785C1.1222 12.2691 1.00926 11.9938 1.00926 11.695H1.0069Z" fill="#EF9E00"/>
<path d="M17.7152 4.60373C18.1058 4.60373 18.4823 4.44844 18.7599 4.17079C19.0375 3.89314 19.1928 3.51903 19.1928 3.12608C19.1928 2.73314 19.0375 2.35903 18.7599 2.08138C18.4823 1.80373 18.1081 1.64844 17.7152 1.64844C17.3223 1.64844 16.9481 1.80373 16.6705 2.08138C16.3928 2.35903 16.2375 2.73314 16.2375 3.12608C16.2375 3.51903 16.3928 3.89314 16.6705 4.17079C16.9481 4.44844 17.3223 4.60373 17.7152 4.60373Z" fill="#EF9E00"/>
<path d="M19.6823 5.90821C19.6823 5.90821 19.6823 5.8988 19.6823 5.89409C19.6282 5.62115 19.3623 5.44468 19.0894 5.5035C16.6988 5.99527 15.5129 7.49409 15.1082 8.12468H13.1858C12.9058 8.12468 12.6823 8.35056 12.6823 8.62821C12.6823 8.90586 12.9082 9.13174 13.1858 9.13174H15.3952C15.5858 9.13174 15.7599 9.0188 15.847 8.84939C15.8658 8.81174 16.1011 8.35998 16.6329 7.84939V12.7835H14.3623C14.1435 12.7835 13.9505 12.9247 13.8823 13.1317L12.3388 17.8941C12.2541 18.1576 12.3976 18.4423 12.6611 18.527C12.7129 18.5435 12.767 18.5506 12.8164 18.5506C13.0282 18.5506 13.2258 18.4188 13.2941 18.2047L14.2376 15.2917L14.3929 18.2612C14.407 18.5435 14.6423 18.7623 14.9223 18.7623C14.9317 18.7623 14.9411 18.7623 14.9505 18.7623C15.2423 18.7459 15.4658 18.4988 15.4517 18.2047L15.2188 13.7906H17.1952C17.2094 13.7906 17.2235 13.7882 17.2376 13.7859L17.5082 13.8023C17.5294 13.807 17.56 13.807 17.5835 13.807C18.1482 13.807 18.6776 13.5906 19.0776 13.1882C19.4776 12.7882 19.6964 12.2588 19.6964 11.6941V6.02115C19.6964 5.98115 19.6917 5.9435 19.6823 5.90586V5.90821ZM18.3647 12.48C18.1694 12.6753 17.9129 12.7906 17.6376 12.8023V7.10586C17.9435 6.93174 18.2941 6.77645 18.6917 6.64939V11.6964C18.6917 11.9906 18.5741 12.2706 18.367 12.48H18.3647Z" fill="#EF9E00"/>
<path d="M3.90589 6.15673L7.5553 7.58732C7.61412 7.61085 7.6753 7.62261 7.73883 7.62261V7.62732C7.86118 7.62732 7.98589 7.58026 8.08 7.4932C8.08236 7.49085 8.20236 7.38497 8.41648 7.25791V9.85556H4.36236C4.12942 9.85556 3.94118 10.0791 3.94118 10.3591C3.94118 10.6391 4.12942 10.8626 4.36236 10.8626H16.0518C16.2847 10.8626 16.4729 10.6391 16.4729 10.3591C16.4729 10.0791 16.2847 9.85556 16.0518 9.85556H11.7224V7.25085C11.9365 7.38026 12.0588 7.48614 12.0612 7.48614C12.1553 7.5732 12.2777 7.62026 12.4024 7.62026V7.61556C12.4635 7.61556 12.5247 7.60379 12.5859 7.58026L16.2353 6.14967C16.4918 6.0485 16.6212 5.75908 16.52 5.49791C16.4188 5.24144 16.1294 5.11438 15.8682 5.2132L12.4847 6.54026C12.0847 6.25791 11.2377 5.78497 10.0941 5.78497C10.08 5.78497 10.0659 5.78732 10.0494 5.78967C8.90589 5.78967 8.06118 6.26497 7.66118 6.54497L4.27765 5.21791C4.02118 5.11673 3.72706 5.24379 3.62589 5.50261C3.52471 5.75908 3.64942 6.0532 3.91059 6.15438L3.90589 6.15673ZM10.7129 9.85556H9.42353V6.86497C9.61648 6.82497 9.82353 6.80144 10.0471 6.80144C10.0612 6.80144 10.0753 6.79908 10.0918 6.79673C10.3153 6.79673 10.5224 6.82026 10.7129 6.86026V9.85556Z" fill="#EF9E00"/>
<path d="M9.2235 5.0787C9.93879 5.53046 10.887 5.32105 11.3411 4.60575C11.7929 3.89046 11.5835 2.94458 10.8682 2.48811C10.1529 2.03634 9.20468 2.24575 8.75056 2.96105C8.29879 3.67634 8.50821 4.62458 9.2235 5.0787Z" fill="#EF9E00"/>
<path d="M9.72949 7.31694V9.13106C9.72949 9.31694 9.88008 9.46753 10.066 9.46753C10.2518 9.46753 10.4024 9.31694 10.4024 9.13106V7.31694C10.4024 7.13106 10.2518 6.98047 10.066 6.98047C9.88008 6.98047 9.72949 7.13106 9.72949 7.31694Z" fill="#BB004D"/>
</svg>
