<svg width="20" height="20" viewBox="0 0 20 20" fill="none" xmlns="http://www.w3.org/2000/svg">
<path d="M17.4212 4.85547C17.1294 4.85547 16.8917 5.09312 16.8917 5.38488C16.8917 5.67665 17.1294 5.91429 17.4212 5.91429C17.7294 5.91429 17.9788 6.1637 17.9788 6.47194V14.2272H2.47057V6.47194C2.47057 6.1637 2.71998 5.91429 3.02821 5.91429C3.33645 5.91429 3.55763 5.67665 3.55763 5.38488C3.55763 5.09312 3.31998 4.85547 3.02821 4.85547C2.13645 4.85547 1.41174 5.58017 1.41174 6.47194V15.4343C1.41174 16.3261 2.13645 17.0508 3.02821 17.0508H8.40704L7.12704 18.9402C7.01645 19.1025 7.00468 19.3119 7.09645 19.4861C7.18821 19.6602 7.36939 19.7684 7.56468 19.7684H13.1317C13.3294 19.7684 13.5106 19.6578 13.6 19.4837C13.6917 19.3096 13.6776 19.0978 13.5647 18.9355L12.2541 17.0508H17.4212C18.3129 17.0508 19.0376 16.3261 19.0376 15.4343V6.47194C19.0376 5.58017 18.3129 4.85547 17.4212 4.85547ZM8.55998 18.7072L9.65174 17.0955H10.9953L12.1153 18.7072H8.55763H8.55998ZM17.4212 15.9919H3.02821C2.71998 15.9919 2.47057 15.7425 2.47057 15.4343V15.2837H17.9788V15.4343C17.9788 15.7425 17.7294 15.9919 17.4212 15.9919Z" fill="#EF9E00"/>
<path d="M8.17178 9.20528C8.31766 9.20528 8.46119 9.14646 8.56472 9.03117L9.92472 7.52058C9.9906 7.5347 10.0588 7.54176 10.1271 7.54176C10.673 7.54176 11.1153 7.0994 11.1153 6.55352C11.1153 6.22176 10.9506 5.92999 10.6988 5.75117V3.18176C10.6988 2.88999 10.4612 2.65234 10.1694 2.65234C9.87766 2.65234 9.64001 2.88999 9.64001 3.18176V5.70176C9.34354 5.87117 9.14119 6.18881 9.14119 6.55587C9.14119 6.63352 9.15296 6.70646 9.16943 6.7794L7.77884 8.32528C7.58354 8.54176 7.60001 8.87823 7.81884 9.07352C7.92001 9.16529 8.04707 9.20999 8.17178 9.20999V9.20528Z" fill="#EF9E00"/>
<path d="M3.81412 6.60849C3.84471 10.0673 6.66588 12.8697 10.1294 12.8697C13.5929 12.8697 16.4141 10.065 16.4447 6.60849C16.4447 6.60379 16.4447 6.59908 16.4447 6.59438C16.4447 6.59202 16.4447 6.58967 16.4447 6.58496C16.4447 6.5732 16.4447 6.56379 16.4447 6.55202C16.4471 3.06732 13.6141 0.234375 10.1294 0.234375C6.64471 0.234375 3.81177 3.06732 3.81177 6.55202C3.81177 6.56379 3.81177 6.5732 3.81177 6.58496C3.81177 6.58732 3.81177 6.58967 3.81177 6.59438C3.81177 6.59908 3.81177 6.60379 3.81177 6.60849H3.81412ZM10.1294 1.2932C12.8635 1.2932 15.1177 3.39202 15.3647 6.06496H15.0024C14.7106 6.06496 14.4729 6.30261 14.4729 6.59438C14.4729 6.88614 14.7106 7.12379 15.0024 7.12379H15.3577C15.0918 9.56849 13.1459 11.5144 10.7012 11.7803V11.2579C10.7012 10.9661 10.4635 10.7285 10.1718 10.7285C9.88 10.7285 9.64236 10.9661 9.64236 11.2579V11.7873C7.16 11.5567 5.17177 9.59438 4.90353 7.12379H5.34118C5.63294 7.12379 5.87059 6.88614 5.87059 6.59438C5.87059 6.30261 5.63294 6.06496 5.34118 6.06496H4.89412C5.14118 3.39438 7.3953 1.2932 10.1294 1.2932Z" fill="#EF9E00"/>
</svg>
