<svg width="21" height="20" viewBox="0 0 21 20" fill="none" xmlns="http://www.w3.org/2000/svg">
<path fill-rule="evenodd" clip-rule="evenodd" d="M5.96871 0.0596729C7.03537 0.0116031 7.37621 0 10.092 0C12.8079 0 13.1487 0.0116031 14.2154 0.0596729C15.8404 0.133435 17.2679 0.529597 18.4137 1.66918C19.5595 2.80877 19.9579 4.22849 20.032 5.84463C20.0804 6.90549 20.092 7.24446 20.092 9.94549C20.092 12.6465 20.0804 12.9855 20.032 14.0463C19.9579 15.6625 19.5595 17.0822 18.4137 18.2218C17.2679 19.3614 15.8404 19.7575 14.2154 19.8313C13.1487 19.8794 12.8079 19.891 10.092 19.891C7.37621 19.891 7.03537 19.8794 5.96871 19.8313C4.34371 19.7575 2.91621 19.3614 1.77037 18.2218C0.624541 17.0822 0.226208 15.6625 0.152041 14.0463C0.103708 12.9855 0.092041 12.6465 0.092041 9.94549C0.092041 7.24446 0.103708 6.90549 0.152041 5.84463C0.226208 4.22849 0.624541 2.80877 1.77037 1.66918C2.91621 0.529597 4.34371 0.133435 5.96871 0.0596729ZM14.132 1.85001C13.0778 1.80194 12.7612 1.79199 10.0912 1.79199C7.42116 1.79199 7.10449 1.80194 6.05032 1.85001C4.91199 1.90139 3.85616 2.12848 3.04366 2.93655C2.23116 3.74462 2.00282 4.7947 1.95116 5.92683C1.90282 6.97525 1.89282 7.29019 1.89282 9.94564C1.89282 12.6011 1.90282 12.916 1.95116 13.9644C2.00282 15.0966 2.23116 16.1467 3.04366 16.9547C3.85616 17.7628 4.91199 17.9899 6.05032 18.0413C7.10449 18.0893 7.42116 18.0993 10.0912 18.0993C12.7612 18.0993 13.0778 18.0893 14.132 18.0413C15.2703 17.9899 16.3262 17.7628 17.1387 16.9547C17.9512 16.1467 18.1795 15.0966 18.2312 13.9644C18.2795 12.916 18.2895 12.6011 18.2895 9.94564C18.2895 7.29019 18.2795 6.97525 18.2312 5.92683C18.1795 4.7947 17.9512 3.74462 17.1387 2.93655C16.3262 2.12848 15.2703 1.90139 14.132 1.85001ZM4.95532 9.9449C4.95532 7.12453 7.25449 4.83789 10.0903 4.83789C12.9261 4.83789 15.2253 7.12453 15.2253 9.9449C15.2253 12.7653 12.9261 15.0519 10.0903 15.0519C7.25449 15.0519 4.95532 12.7653 4.95532 9.9449ZM6.7561 9.94504C6.7561 11.7758 8.2486 13.2602 10.0894 13.2602C11.9303 13.2602 13.4228 11.7758 13.4228 9.94504C13.4228 8.11425 11.9303 6.62988 10.0894 6.62988C8.2486 6.62988 6.7561 8.11425 6.7561 9.94504ZM16.6288 4.63682C16.6288 5.29595 16.0915 5.83028 15.4288 5.83028C14.766 5.83028 14.2288 5.29595 14.2288 4.63682C14.2288 3.97769 14.766 3.44336 15.4288 3.44336C16.0915 3.44336 16.6288 3.97769 16.6288 4.63682Z" fill="#0A142F"/>
</svg>
