<svg width="21" height="16" viewBox="0 0 21 16" fill="none" xmlns="http://www.w3.org/2000/svg">
<path d="M18.1266 4.05319L18.1385 4.55979C18.1385 9.73292 14.1815 15.6928 6.94452 15.6928C4.72331 15.6928 2.65586 15.0452 0.914062 13.9346C1.22171 13.9704 1.53527 13.9902 1.8529 13.9902C3.69662 13.9902 5.39248 13.3644 6.73878 12.3155C5.01696 12.2837 3.56474 11.1513 3.06338 9.59784C3.30506 9.64352 3.54877 9.66541 3.80444 9.66541C4.164 9.66541 4.51153 9.61973 4.84112 9.53033C3.04137 9.16875 1.68508 7.58943 1.68508 5.6942V5.64454C2.2164 5.93855 2.82164 6.11336 3.46683 6.13525C2.41215 5.43398 1.71702 4.23604 1.71702 2.87918C1.71702 2.16202 1.91079 1.49055 2.24834 0.912459C4.18792 3.28049 7.08829 4.83798 10.3582 5.0009C10.2903 4.7148 10.2563 4.41484 10.2563 4.10894C10.2563 1.9495 12.0181 0.197266 14.1914 0.197266C15.322 0.197266 16.3448 0.672035 17.0638 1.43291C17.9587 1.25607 18.8017 0.9303 19.5627 0.483304C19.269 1.39716 18.6459 2.16398 17.8329 2.64868C18.6259 2.5553 19.3869 2.34272 20.092 2.03282C19.5647 2.81552 18.8956 3.5049 18.1266 4.05319Z" fill="#0A142F"/>
</svg>
