<svg width="20" height="20" viewBox="0 0 20 20" fill="none" xmlns="http://www.w3.org/2000/svg">
<path d="M17.4965 4.65813V4.12872C17.4965 3.60872 17.0753 3.18755 16.5553 3.18755H15.1412C14.6212 3.18755 14.2 3.60872 14.2 4.12872V4.64166H13.9176V2.26519C13.9176 1.66519 13.4047 1.17578 12.7741 1.17578H6.4C5.76941 1.17578 5.25647 1.66519 5.25647 2.26519V4.64166H5.08471V4.12872C5.08471 3.60872 4.66353 3.18755 4.14353 3.18755H2.84235C2.32235 3.18755 1.90118 3.60872 1.90118 4.12872V4.64166C0.851765 4.64872 0 5.50519 0 6.55696V16.4228C0 17.4793 0.858823 18.3381 1.91529 18.3381H17.2612C18.3176 18.3381 19.1765 17.4793 19.1765 16.4228V6.55696C19.1765 5.58049 18.4424 4.77578 17.4988 4.65813H17.4965ZM15.2588 4.24637H16.4376V4.64166H15.2588V4.24637ZM6.31294 2.27225C6.31294 2.27225 6.34588 2.2346 6.4 2.2346H12.7741C12.8282 2.2346 12.8565 2.26284 12.8588 2.26519V4.64166H6.31294V2.27225ZM4.02588 4.24872V4.64402H2.96V4.24872H4.02588ZM18.1176 16.4252C18.1176 16.8981 17.7341 17.2817 17.2612 17.2817H1.91294C1.44 17.2817 1.05647 16.8981 1.05647 16.4252V6.55696C1.05647 6.08402 1.44 5.70049 1.91294 5.70049H17.2588C17.7318 5.70049 18.1153 6.08402 18.1153 6.55696V16.4228L18.1176 16.4252Z" fill="#EF9E00"/>
<path d="M9.69889 6.21094C7.00242 6.21094 4.80713 8.40623 4.80713 11.1027C4.80713 13.7992 7.00242 15.9945 9.69889 15.9945C12.3954 15.9945 14.5907 13.7992 14.5907 11.1027C14.5907 8.40623 12.3954 6.21094 9.69889 6.21094ZM9.69889 14.9333C7.58595 14.9333 5.86595 13.2133 5.86595 11.1003C5.86595 8.98741 7.58595 7.26741 9.69889 7.26741C11.8118 7.26741 13.5318 8.98741 13.5318 11.1003C13.5318 13.2133 11.8118 14.9333 9.69889 14.9333Z" fill="#EF9E00"/>
<path d="M10.506 10.6959C10.3224 10.6159 10.0354 10.5359 9.64244 10.4559C9.40715 10.4089 9.25656 10.3547 9.19068 10.2912C9.12479 10.2277 9.0895 10.15 9.0895 10.0559C9.0895 9.82532 9.26832 9.71003 9.62362 9.71003C9.96009 9.71003 10.1789 9.86062 10.2824 10.1641L11.0471 9.91003C10.8542 9.3712 10.4471 9.07473 9.82126 9.01591V8.54297H9.33656V9.02297C9.00244 9.06297 8.73185 9.19473 8.52009 9.41826C8.31068 9.64179 8.20479 9.91238 8.20479 10.2277C8.20479 10.4959 8.28715 10.7312 8.45421 10.9336C8.62126 11.1359 8.99068 11.2959 9.56479 11.4136C9.83068 11.4653 10.0071 11.5241 10.0989 11.5853C10.1907 11.6489 10.2354 11.7359 10.2354 11.8489C10.2354 11.9618 10.1836 12.0559 10.0824 12.1336C9.98126 12.2136 9.82597 12.2512 9.61891 12.2512C9.19303 12.2512 8.93185 12.0724 8.83538 11.7147L8.00244 11.9053C8.16009 12.5312 8.60479 12.8841 9.33421 12.9618V13.5359H9.81891V12.9618C10.266 12.9194 10.5977 12.7736 10.8189 12.5265C11.0401 12.2794 11.1507 12.0018 11.1507 11.6936C11.1507 11.47 11.0895 11.27 10.9648 11.0889C10.8401 10.9077 10.6871 10.7783 10.5036 10.6959H10.506Z" fill="#BB004D"/>
</svg>
