<svg width="85" height="85" viewBox="0 0 85 85" fill="none" xmlns="http://www.w3.org/2000/svg">
<path d="M11.2845 36.4088C11.2332 35.8259 11.2075 35.2378 11.2075 34.642C11.2075 31.906 11.7539 29.2979 12.7465 26.9199" stroke="#BB004D" stroke-width="4.5" stroke-miterlimit="10" stroke-linecap="round"/>
<path d="M17.3305 20.2002C20.9676 16.6767 25.9333 14.5059 31.4069 14.5059C42.5618 14.5059 51.6057 23.5217 51.6057 34.642C51.6057 45.7623 42.5618 54.7782 31.4069 54.7782C23.5248 54.7782 16.6944 50.2753 13.3677 43.7116" stroke="#EF9E00" stroke-width="4.5" stroke-miterlimit="10" stroke-linecap="round"/>
<path d="M3 5.8125L17.3636 20.1315" stroke="#EF9E00" stroke-width="4.5" stroke-miterlimit="10" stroke-linecap="round"/>
<path d="M61.4029 28.0586H77.0644C79.7781 28.0586 81.9993 30.2729 81.9993 32.9782V70.443C81.9993 73.1482 79.7781 75.3626 77.0644 75.3626H17.681C14.9673 75.3626 12.7461 73.1482 12.7461 70.443V56.8961" stroke="#EF9E00" stroke-width="4.5" stroke-miterlimit="10" stroke-linecap="round"/>
<path d="M39.4219 63.5996H81.9998" stroke="#EF9E00" stroke-width="4.5" stroke-miterlimit="10" stroke-linecap="round"/>
<path d="M56.0942 51.582H82.0001" stroke="#EF9E00" stroke-width="4.5" stroke-miterlimit="10" stroke-linecap="round"/>
<path d="M64.5586 38.7969H82.0002" stroke="#EF9E00" stroke-width="4.5" stroke-miterlimit="10" stroke-linecap="round"/>
<path d="M70.4575 38.7969V51.5817" stroke="#EF9E00" stroke-width="4.5" stroke-miterlimit="10" stroke-linecap="round"/>
<path d="M60.7114 52.3496V63.0889" stroke="#EF9E00" stroke-width="4.5" stroke-miterlimit="10" stroke-linecap="round"/>
<path d="M70.4575 63.5996V75.3617" stroke="#EF9E00" stroke-width="4.5" stroke-miterlimit="10" stroke-linecap="round"/>
<path d="M48.9121 63.5996V75.3617" stroke="#EF9E00" stroke-width="4.5" stroke-miterlimit="10" stroke-linecap="round"/>
<path d="M24.8018 63.5996V75.3617" stroke="#EF9E00" stroke-width="4.5" stroke-miterlimit="10" stroke-linecap="round"/>
</svg>
