<svg width="35" height="35" viewBox="0 0 35 35" fill="none" xmlns="http://www.w3.org/2000/svg">
<path d="M33.5588 6.32048L17.6194 0.0822472C17.3435 -0.0248116 17.0388 -0.0248116 16.7629 0.0822472L0.753529 6.32048C0.296471 6.49754 0 6.92989 0 7.41989V9.93989C0 10.5905 0.531176 11.1217 1.18176 11.1217H1.34235V12.2499C1.34235 13.0446 1.92706 13.6952 2.68882 13.8146C2.66412 13.9464 2.65176 14.0822 2.65176 14.2222C2.65176 15.3217 3.45059 16.2358 4.49647 16.4211V24.1622C3.45059 24.3475 2.65176 25.2617 2.65176 26.3611C2.65176 26.5011 2.66824 26.6411 2.69294 26.777H2.27706C1.31765 26.777 0.539412 27.5552 0.539412 28.5146V30.1781C0.539412 31.1375 1.31765 31.9158 2.27706 31.9158H31.6359C32.5953 31.9158 33.3735 31.1375 33.3735 30.1781V28.5146C33.3735 27.5758 32.6241 26.8099 31.6894 26.7811C31.7141 26.6452 31.7306 26.5052 31.7306 26.3611C31.7306 25.274 30.9482 24.3681 29.9188 24.1664V16.4128C30.9482 16.2152 31.7306 15.3093 31.7306 14.2181C31.7306 14.0699 31.7141 13.9258 31.6894 13.7899C32.3853 13.6211 32.9041 12.9952 32.9041 12.2499V11.1217H33.1306C33.7812 11.1217 34.3124 10.5905 34.3124 9.93989V7.41989C34.3124 6.92989 34.0159 6.49754 33.5629 6.32048H33.5588ZM1.85294 7.87695L17.1871 1.90225L32.4553 7.87695V9.26872H1.85294V7.87695ZM8.35059 16.454V24.1252H6.34529V16.454H8.35059ZM4.88353 25.9781H9.77941C9.98941 25.9781 10.1624 26.1511 10.1624 26.3611C10.1624 26.5711 9.98941 26.744 9.77941 26.744H4.88353C4.67353 26.744 4.50059 26.5711 4.50059 26.3611C4.50059 26.1511 4.67353 25.9781 4.88353 25.9781ZM10.1582 14.2222C10.1582 14.4322 9.98529 14.6052 9.77529 14.6052H4.87941C4.66941 14.6052 4.49647 14.4322 4.49647 14.2222C4.49647 14.0122 4.66941 13.8393 4.87941 13.8393H9.77529C9.98529 13.8393 10.1582 14.0122 10.1582 14.2222ZM10.1994 24.1664V16.4128C11.2288 16.2152 12.0112 15.3093 12.0112 14.2181C12.0112 14.0864 11.9988 13.9628 11.9782 13.8352H12.3406C12.32 13.9587 12.3076 14.0864 12.3076 14.2181C12.3076 15.3175 13.1065 16.2317 14.1524 16.417V24.1581C13.1065 24.3434 12.3076 25.2575 12.3076 26.357C12.3076 26.497 12.3241 26.637 12.3488 26.7728H11.9741C11.9988 26.637 12.0153 26.5011 12.0153 26.357C12.0153 25.2699 11.2329 24.364 10.2035 24.1622L10.1994 24.1664ZM29.8735 14.2222C29.8735 14.4322 29.7006 14.6052 29.4906 14.6052H24.5947C24.3847 14.6052 24.2118 14.4322 24.2118 14.2222C24.2118 14.0122 24.3847 13.8393 24.5947 13.8393H29.4906C29.7006 13.8393 29.8735 14.0122 29.8735 14.2222ZM29.4906 26.744H24.5947C24.3847 26.744 24.2118 26.5711 24.2118 26.3611C24.2118 26.1511 24.3847 25.9781 24.5947 25.9781H29.4906C29.7006 25.9781 29.8735 26.1511 29.8735 26.3611C29.8735 26.5711 29.7006 26.744 29.4906 26.744ZM26.0565 24.1293V16.4581H28.0576V24.1293H26.0565ZM24.2035 16.4211V24.1622C23.1576 24.3475 22.3588 25.2617 22.3588 26.3611C22.3588 26.5011 22.3753 26.6411 22.4 26.777H21.6259C21.6506 26.6411 21.6671 26.5052 21.6671 26.3611C21.6671 25.274 20.8847 24.3681 19.8553 24.1664V16.4128C20.8847 16.2152 21.6671 15.3093 21.6671 14.2181C21.6671 14.0864 21.6547 13.9628 21.6341 13.8352H22.4C22.3794 13.9587 22.3671 14.0864 22.3671 14.2181C22.3671 15.3175 23.1659 16.2317 24.2118 16.417L24.2035 16.4211ZM19.81 26.3611C19.81 26.5711 19.6371 26.744 19.4271 26.744H14.5312C14.3212 26.744 14.1482 26.5711 14.1482 26.3611C14.1482 26.1511 14.3212 25.9781 14.5312 25.9781H19.4271C19.6371 25.9781 19.81 26.1511 19.81 26.3611ZM17.9982 24.1252H15.9971V16.454H17.9982V24.1252ZM19.81 14.2222C19.81 14.4322 19.6371 14.6052 19.4271 14.6052H14.5312C14.3212 14.6052 14.1482 14.4322 14.1482 14.2222C14.1482 14.0122 14.3212 13.8393 14.5312 13.8393H19.4271C19.6371 13.8393 19.81 14.0122 19.81 14.2222ZM31.5124 30.0628H2.38824V28.6299H31.5165V30.0628H31.5124ZM31.0429 11.9905H3.19529V11.1258H31.0512V11.9905H31.0429Z" fill="#EF9E00"/>
<path d="M17.0226 8.54131C18.5873 8.54131 19.8597 7.26895 19.8597 5.70425C19.8597 4.13954 18.5873 2.86719 17.0226 2.86719C15.4579 2.86719 14.1855 4.13954 14.1855 5.70425C14.1855 7.26895 15.4579 8.54131 17.0226 8.54131ZM17.0226 4.72013C17.5661 4.72013 18.0067 5.16072 18.0067 5.70425C18.0067 6.24778 17.5661 6.68836 17.0226 6.68836C16.4791 6.68836 16.0385 6.24778 16.0385 5.70425C16.0385 5.16072 16.4791 4.72013 17.0226 4.72013Z" fill="#BB004D"/>
</svg>
