<svg width="25" height="24" viewBox="0 0 25 24" fill="none" xmlns="http://www.w3.org/2000/svg">
<g clip-path="url(#clip0_815_61315)">
<path d="M5.44063 8.55938C6.02656 9.14484 6.97625 9.14531 7.56172 8.55942L11 5.12344V16.5C11 17.3283 11.6717 18 12.5 18C13.3283 18 14 17.3283 14 16.5V5.12344L17.4397 8.56312C18.0252 9.14859 18.9748 9.14859 19.5608 8.56308C20.1462 7.97761 20.1462 7.02792 19.5608 6.44198L13.5608 0.441984C13.2688 0.146484 12.8844 0 12.5 0C12.1156 0 11.7312 0.146484 11.4406 0.439453L5.44063 6.44062C4.85375 7.02656 4.85375 7.97344 5.44063 8.55938ZM23 16.5H15.5C15.5 18.157 14.157 19.5 12.5 19.5C10.843 19.5 9.5 18.157 9.5 16.5H2C1.17172 16.5 0.5 17.1717 0.5 18V22.5C0.5 23.3283 1.17172 24 2 24H23C23.8283 24 24.5 23.3283 24.5 22.5V18C24.5 17.1703 23.8297 16.5 23 16.5ZM20.75 21.375C20.1313 21.375 19.625 20.8687 19.625 20.25C19.625 19.6313 20.1313 19.125 20.75 19.125C21.3687 19.125 21.875 19.6313 21.875 20.25C21.875 20.8687 21.3687 21.375 20.75 21.375Z" fill="#EF9E00"/>
</g>
<defs>
<clipPath id="clip0_815_61315">
<rect width="24" height="24" fill="white" transform="translate(0.5)"/>
</clipPath>
</defs>
</svg>
