<svg width="20" height="20" viewBox="0 0 20 20" fill="none" xmlns="http://www.w3.org/2000/svg">
<path d="M1.97881 4.60373C2.36939 4.60373 2.74587 4.44844 3.02351 4.17079C3.30116 3.89314 3.45645 3.51903 3.45645 3.12608C3.45645 2.73314 3.30116 2.35903 3.02351 2.08138C2.74587 1.80373 2.37175 1.64844 1.97881 1.64844C1.58587 1.64844 1.21175 1.80373 0.934101 2.08138C0.656454 2.35903 0.50116 2.73314 0.50116 3.12608C0.50116 3.51903 0.656454 3.89314 0.934101 4.17079C1.21175 4.44844 1.58587 4.60373 1.97881 4.60373Z" fill="#EF9E00"/>
<path d="M5.81644 13.1303C5.7482 12.9232 5.55526 12.782 5.33644 12.782H3.06585V7.8526C3.59761 8.36084 3.83291 8.8126 3.85173 8.85025C3.93408 9.02437 4.11055 9.1326 4.3035 9.1326H6.51055C6.79055 9.1326 7.01408 8.90672 7.01408 8.62907C7.01408 8.35143 6.7882 8.1279 6.51055 8.1279H4.5882C4.1835 7.49731 2.99761 6.00084 0.607025 5.50672C0.336437 5.45025 0.0705546 5.62437 0.014084 5.89731C0.014084 5.90437 0.014084 5.90907 0.014084 5.91613C0.00702522 5.94907 0.00231934 5.98437 0.00231934 6.02202V11.695C0.00231934 12.2597 0.221143 12.7891 0.621143 13.1891C1.02114 13.5891 1.55055 13.8079 2.11526 13.8079H2.13408C2.13408 13.8079 2.15055 13.8079 2.16467 13.8032L2.45879 13.7844C2.47291 13.7844 2.48703 13.7891 2.50114 13.7891H4.48232L4.04232 18.182C4.01408 18.4738 4.22585 18.7326 4.51761 18.7608C4.53644 18.7608 4.55291 18.7632 4.57173 18.7632C4.83997 18.7632 5.07055 18.5585 5.09879 18.2855L5.41173 15.1444L6.40232 18.2008C6.47055 18.4126 6.6682 18.5491 6.87997 18.5491C6.93173 18.5491 6.98585 18.5397 7.03526 18.5232C7.29879 18.4385 7.44467 18.1538 7.35761 17.8903L5.81408 13.1279L5.81644 13.1303ZM1.00703 11.695V6.6526C1.40467 6.77966 1.75526 6.93496 2.06114 7.10907V12.8008C1.78585 12.7867 1.52938 12.6738 1.33408 12.4785C1.12232 12.2691 1.00938 11.9938 1.00938 11.695H1.00703Z" fill="#EF9E00"/>
<path d="M17.7153 4.60373C18.1058 4.60373 18.4823 4.44844 18.76 4.17079C19.0376 3.89314 19.1929 3.51903 19.1929 3.12608C19.1929 2.73314 19.0376 2.35903 18.76 2.08138C18.4823 1.80373 18.1082 1.64844 17.7153 1.64844C17.3223 1.64844 16.9482 1.80373 16.6706 2.08138C16.3929 2.35903 16.2376 2.73314 16.2376 3.12608C16.2376 3.51903 16.3929 3.89314 16.6706 4.17079C16.9482 4.44844 17.3223 4.60373 17.7153 4.60373Z" fill="#EF9E00"/>
<path d="M19.6823 5.90821C19.6823 5.90821 19.6823 5.8988 19.6823 5.89409C19.6282 5.62115 19.3623 5.44468 19.0894 5.5035C16.6988 5.99527 15.5129 7.49409 15.1082 8.12468H13.1858C12.9058 8.12468 12.6823 8.35056 12.6823 8.62821C12.6823 8.90586 12.9082 9.13174 13.1858 9.13174H15.3952C15.5858 9.13174 15.7599 9.0188 15.847 8.84939C15.8658 8.81174 16.1011 8.35998 16.6329 7.84939V12.7835H14.3623C14.1435 12.7835 13.9505 12.9247 13.8823 13.1317L12.3388 17.8941C12.2541 18.1576 12.3976 18.4423 12.6611 18.527C12.7129 18.5435 12.767 18.5506 12.8164 18.5506C13.0282 18.5506 13.2258 18.4188 13.2941 18.2047L14.2376 15.2917L14.3929 18.2612C14.407 18.5435 14.6423 18.7623 14.9223 18.7623C14.9317 18.7623 14.9411 18.7623 14.9505 18.7623C15.2423 18.7459 15.4658 18.4988 15.4517 18.2047L15.2188 13.7906H17.1952C17.2094 13.7906 17.2235 13.7882 17.2376 13.7859L17.5082 13.8023C17.5294 13.807 17.56 13.807 17.5835 13.807C18.1482 13.807 18.6776 13.5906 19.0776 13.1882C19.4776 12.7882 19.6964 12.2588 19.6964 11.6941V6.02115C19.6964 5.98115 19.6917 5.9435 19.6823 5.90586V5.90821ZM18.3647 12.48C18.1694 12.6753 17.9129 12.7906 17.6376 12.8023V7.10586C17.9435 6.93174 18.2941 6.77645 18.6917 6.64939V11.6964C18.6917 11.9906 18.5741 12.2706 18.367 12.48H18.3647Z" fill="#EF9E00"/>
<path d="M3.90583 6.15673L7.55524 7.58732C7.61406 7.61085 7.67524 7.62261 7.73877 7.62261V7.62732C7.86112 7.62732 7.98583 7.58026 8.07994 7.4932C8.0823 7.49085 8.2023 7.38497 8.41641 7.25791V9.85556H4.3623C4.12936 9.85556 3.94112 10.0791 3.94112 10.3591C3.94112 10.6391 4.12936 10.8626 4.3623 10.8626H16.0517C16.2847 10.8626 16.4729 10.6391 16.4729 10.3591C16.4729 10.0791 16.2847 9.85556 16.0517 9.85556H11.7223V7.25085C11.9364 7.38026 12.0588 7.48614 12.0611 7.48614C12.1552 7.5732 12.2776 7.62026 12.4023 7.62026V7.61556C12.4635 7.61556 12.5247 7.60379 12.5858 7.58026L16.2352 6.14967C16.4917 6.0485 16.6211 5.75908 16.5199 5.49791C16.4188 5.24144 16.1294 5.11438 15.8682 5.2132L12.4847 6.54026C12.0847 6.25791 11.2376 5.78497 10.0941 5.78497C10.0799 5.78497 10.0658 5.78732 10.0494 5.78967C8.90583 5.78967 8.06112 6.26497 7.66112 6.54497L4.27759 5.21791C4.02112 5.11673 3.727 5.24379 3.62583 5.50261C3.52465 5.75908 3.64936 6.0532 3.91053 6.15438L3.90583 6.15673ZM10.7129 9.85556H9.42347V6.86497C9.61641 6.82497 9.82347 6.80144 10.047 6.80144C10.0611 6.80144 10.0752 6.79908 10.0917 6.79673C10.3152 6.79673 10.5223 6.82026 10.7129 6.86026V9.85556Z" fill="#EF9E00"/>
<path d="M9.22356 5.0787C9.93886 5.53046 10.8871 5.32105 11.3412 4.60575C11.793 3.89046 11.5836 2.94458 10.8683 2.48811C10.153 2.03634 9.20474 2.24575 8.75062 2.96105C8.29885 3.67634 8.50827 4.62458 9.22356 5.0787Z" fill="#EF9E00"/>
<path d="M9.72943 7.31694V9.13106C9.72943 9.31694 9.88002 9.46753 10.0659 9.46753C10.2518 9.46753 10.4024 9.31694 10.4024 9.13106V7.31694C10.4024 7.13106 10.2518 6.98047 10.0659 6.98047C9.88002 6.98047 9.72943 7.13106 9.72943 7.31694Z" fill="#BB004D"/>
</svg>
