<svg width="85" height="85" viewBox="0 0 85 85" fill="none" xmlns="http://www.w3.org/2000/svg">
<path d="M57.5 78.5C57.5 78.5 58.4633 78.9259 61.0844 80.7941C63.8846 82.79 64.3999 82.4723 65.0047 81.6723C66.1088 80.2113 67.7138 76.5979 68.445 75.2056C69.3251 73.529 68.445 72.3315 68.445 72.3315L66.8113 69.8869C66.6273 69.6122 66.5585 69.2753 66.6209 68.9496L68.6851 58.0407L69.65 56.4089C70.074 55.9091 70.1172 55.1906 69.7556 54.6429L66.4545 49.6404C66.1984 49.2524 65.7632 49.0192 65.2991 49.0192H62.5245L62.6045 43.1912L59.4842 45.5064H55.9751C55.6182 45.5064 55.3334 45.2126 55.343 44.8566L55.3766 43.7405C55.391 43.2614 55.0118 42.8639 54.5317 42.8543L51.3218 42.792L52.0867 40.9733C52.2563 40.5694 52.1907 40.1031 51.9155 39.7614L48.936 36.0586C48.6352 35.685 48.584 35.1724 48.8048 34.7477C50.0081 32.4356 53.8245 25.1498 54.3637 24.7474C55.0038 24.2684 61.5644 22.8313 63.0045 22.6716C64.4447 22.512 66.0448 22.991 66.0448 22.0329C66.0448 21.4198 65.7168 20.2159 65.48 19.4303C65.3455 18.9848 64.9375 18.6798 64.4719 18.6798H61.8844L63.9614 15.8967C64.3407 15.389 64.1726 14.664 63.6094 14.3734C62.0908 13.5926 59.4266 12.1923 58.2409 11.568C57.8793 11.378 57.4376 11.4227 57.1208 11.6814L55.4214 13.0689C55.151 13.2893 54.8134 13.409 54.4645 13.409H52.866C52.4019 13.409 51.9683 13.1823 51.7043 12.8007C50.5042 11.0666 47.1006 6.18862 46.443 5.66489C45.6429 5.0262 43.934 3.37359 41.8826 3.03029C39.9272 2.70296 42.3514 5.10125 42.5226 6.70277C42.5354 6.81454 38.1222 12.3711 36.7621 13.409C35.738 14.1914 29.6414 16.842 29.7214 16.9218C29.7886 16.9889 27.326 22.1495 26.5339 23.8053C26.3899 24.1071 26.0667 24.2811 25.7355 24.238L25.177 24.1662C24.7658 24.1135 24.4649 23.7558 24.4809 23.3423L24.5209 22.3363C24.5209 21.926 24.2329 21.5715 23.8313 21.4853L19.8549 20.6438C19.5573 20.5815 19.4133 20.2414 19.5733 19.9843L20.4278 18.6207C20.6726 18.2295 20.6086 17.7202 20.2741 17.4008C19.5285 16.6903 18.442 15.8855 17.4819 15.4065C16.9234 15.1271 16.5218 15.4065 15.7217 16.5242C14.9216 17.6419 13.0015 19.3983 13.0015 20.3564C13.0015 21.3144 15.5377 24.6644 16.5714 26.1349C16.7666 26.4112 16.7218 26.7864 16.4738 27.0163C15.7569 27.6822 14.8512 28.1612 15.4017 28.819C15.4017 28.819 16.5218 30.8948 17.0018 31.2141C17.4819 31.5335 19.8821 31.3738 19.8821 31.3738L22 33" stroke="#EF9E00" stroke-width="4" stroke-linecap="round" stroke-linejoin="round"/>
<path fill-rule="evenodd" clip-rule="evenodd" d="M32.5 37.25C28.4966 37.25 25.25 40.4964 25.25 44.5C25.25 48.5036 28.4966 51.75 32.5 51.75C36.5034 51.75 39.75 48.5036 39.75 44.5C39.75 40.4964 36.5034 37.25 32.5 37.25ZM20.75 44.5C20.75 38.011 26.0114 32.75 32.5 32.75C38.9886 32.75 44.25 38.011 44.25 44.5C44.25 50.989 38.9886 56.25 32.5 56.25C26.0114 56.25 20.75 50.989 20.75 44.5Z" fill="#EF9E00"/>
<path fill-rule="evenodd" clip-rule="evenodd" d="M15.5087 66.4471C16.4729 66.932 16.8614 68.1067 16.3765 69.0709C15.8094 70.1986 15.3962 71.4161 15.1645 72.6932C14.9719 73.7552 13.9548 74.4599 12.8929 74.2672C11.8309 74.0746 11.1262 73.0575 11.3189 71.9956C11.6185 70.3443 12.1526 68.7708 12.8848 67.3149C13.3697 66.3507 14.5445 65.9621 15.5087 66.4471Z" fill="#BB004D"/>
<path fill-rule="evenodd" clip-rule="evenodd" d="M15.7694 62.7991C18.2335 59.5143 22.6058 56.75 28.4645 56.75H36.5339C46.4957 56.75 54.25 65.6957 54.25 76.1446C54.25 78.188 52.7055 80.25 50.3262 80.25H14.6738C14.6542 80.25 14.6335 80.25 14.6117 80.2501C14.4151 80.2503 14.1341 80.2507 13.8668 80.2322C13.5725 80.2118 13.1198 80.1603 12.6476 79.9695C12.1264 79.759 11.5793 79.3764 11.1995 78.7401C10.8421 78.1414 10.75 77.5126 10.75 76.9983C10.75 75.7556 11.7574 74.7483 13 74.7483C13.7809 74.7483 14.4688 75.146 14.8723 75.75H49.7455C49.5563 67.5317 43.4748 61.25 36.5339 61.25H28.4645C24.1075 61.25 21.036 63.2774 19.3692 65.4994C18.6235 66.4934 17.2132 66.6948 16.2192 65.9491C15.2251 65.2034 15.0238 63.7931 15.7694 62.7991ZM14.1326 75.7385C14.1327 75.7384 14.136 75.7388 14.142 75.7398C14.1355 75.739 14.1325 75.7385 14.1326 75.7385ZM15.25 76.9977C15.25 76.998 15.25 76.9981 15.25 76.9982V76.9983C15.25 76.9981 15.25 76.9979 15.25 76.9977Z" fill="#EF9E00"/>
</svg>
