<svg width="85" height="85" viewBox="0 0 85 85" fill="none" xmlns="http://www.w3.org/2000/svg">
<path d="M74.36 19.8V17.55C74.36 15.34 72.57 13.55 70.36 13.55H64.35C62.14 13.55 60.35 15.34 60.35 17.55V19.73H59.15V9.63C59.15 7.08 56.97 5 54.29 5H27.2C24.52 5 22.34 7.08 22.34 9.63V19.73H21.61V17.55C21.61 15.34 19.82 13.55 17.61 13.55H12.08C9.87 13.55 8.08 15.34 8.08 17.55V19.73C3.62 19.76 0 23.4 0 27.87V69.8C0 74.29 3.65 77.94 8.14 77.94H73.36C77.85 77.94 81.5 74.29 81.5 69.8V27.87C81.5 23.72 78.38 20.3 74.37 19.8H74.36ZM64.85 18.05H69.86V19.73H64.85V18.05ZM26.83 9.66C26.83 9.66 26.97 9.5 27.2 9.5H54.29C54.52 9.5 54.64 9.62 54.65 9.63V19.73H26.83V9.66ZM17.11 18.06V19.74H12.58V18.06H17.11ZM77 69.81C77 71.82 75.37 73.45 73.36 73.45H8.13C6.12 73.45 4.49 71.82 4.49 69.81V27.87C4.49 25.86 6.12 24.23 8.13 24.23H73.35C75.36 24.23 76.99 25.86 76.99 27.87V69.8L77 69.81Z" fill="#EF9E00"/>
<path d="M41.2202 26.3906C29.7602 26.3906 20.4302 35.7206 20.4302 47.1806C20.4302 58.6406 29.7602 67.9706 41.2202 67.9706C52.6802 67.9706 62.0102 58.6406 62.0102 47.1806C62.0102 35.7206 52.6802 26.3906 41.2202 26.3906ZM41.2202 63.4606C32.2402 63.4606 24.9302 56.1506 24.9302 47.1706C24.9302 38.1906 32.2402 30.8806 41.2202 30.8806C50.2002 30.8806 57.5102 38.1906 57.5102 47.1706C57.5102 56.1506 50.2002 63.4606 41.2202 63.4606Z" fill="#EF9E00"/>
<path d="M44.6503 45.4605C43.8703 45.1205 42.6503 44.7805 40.9803 44.4405C39.9803 44.2405 39.3403 44.0105 39.0603 43.7405C38.7803 43.4705 38.6303 43.1405 38.6303 42.7405C38.6303 41.7605 39.3903 41.2705 40.9003 41.2705C42.3303 41.2705 43.2603 41.9105 43.7003 43.2005L46.9503 42.1205C46.1303 39.8305 44.4003 38.5705 41.7403 38.3205V36.3105H39.6803V38.3505C38.2603 38.5205 37.1103 39.0805 36.2103 40.0305C35.3203 40.9805 34.8703 42.1305 34.8703 43.4705C34.8703 44.6105 35.2203 45.6105 35.9303 46.4705C36.6403 47.3305 38.2103 48.0105 40.6503 48.5105C41.7803 48.7305 42.5303 48.9805 42.9203 49.2405C43.3103 49.5105 43.5003 49.8805 43.5003 50.3605C43.5003 50.8405 43.2803 51.2405 42.8503 51.5705C42.4203 51.9105 41.7603 52.0705 40.8803 52.0705C39.0703 52.0705 37.9603 51.3105 37.5503 49.7905L34.0103 50.6005C34.6803 53.2605 36.5703 54.7605 39.6703 55.0905V57.5305H41.7303V55.0905C43.6303 54.9105 45.0403 54.2905 45.9803 53.2405C46.9203 52.1905 47.3903 51.0105 47.3903 49.7005C47.3903 48.7505 47.1303 47.9005 46.6003 47.1305C46.0703 46.3605 45.4203 45.8105 44.6403 45.4605H44.6503Z" fill="#BB004D"/>
</svg>
