<svg width="85" height="85" viewBox="0 0 85 85" fill="none" xmlns="http://www.w3.org/2000/svg">
<path d="M53.1015 51.3836C52.5415 51.3836 51.9815 51.1836 51.5415 50.7636C50.6215 49.9036 50.5715 48.4536 51.4315 47.5336C51.8015 47.1436 52.5815 46.0036 53.3415 44.8936L54.2415 43.5936C56.6015 40.2136 57.5315 36.1336 57.5415 36.0936C57.8215 34.8636 59.0415 34.0836 60.2715 34.3636C61.5015 34.6436 62.2815 35.8536 62.0015 37.0936C61.9615 37.2936 60.8715 42.0736 57.9915 46.2136L57.1115 47.4836C56.1415 48.8936 55.3715 50.0136 54.7715 50.6636C54.3215 51.1436 53.7115 51.3836 53.1015 51.3836Z" fill="#BB004D"/>
<path d="M62.3214 28.0332C61.9314 24.3432 60.7314 20.6632 58.7714 17.0832C56.5214 12.9732 53.2314 9.56316 48.9814 6.94316C45.7914 4.97316 42.2814 3.72316 38.5714 3.25316C34.4714 2.73316 30.7114 3.01316 27.0514 4.10316C21.2414 5.85316 16.4314 9.20316 12.7714 14.0732C10.1714 17.5232 8.44141 21.3232 7.63141 25.3732C7.07141 28.2532 6.88141 30.6432 7.07141 32.8932C7.49141 37.9532 8.85141 42.2532 11.2214 46.0232C12.7614 48.4732 14.4514 50.5232 16.3714 52.2932C18.5114 54.2632 19.8414 56.7932 20.4514 60.0132C20.5414 60.4632 20.5614 61.0032 20.5714 61.5532C19.9614 62.0432 19.3014 62.8532 19.0514 64.2632C18.8614 65.2832 18.9014 66.2432 18.9214 67.0932L18.9414 67.6432C18.9614 68.8432 19.5414 69.8932 20.5814 70.7932C20.5614 71.3232 20.5414 71.8532 20.5314 72.3832V72.6432C20.5014 73.9232 20.4814 75.3832 21.6014 76.4932C22.6814 77.5732 24.2414 77.7032 25.7514 77.6632C25.9214 80.1332 28.5614 82.8232 31.2414 83.0732C32.2414 83.1632 33.2314 83.1932 34.2114 83.1932C34.8114 83.1932 35.4114 83.1932 35.9914 83.1732L37.3514 83.1532C38.8214 83.1532 40.1214 82.7132 41.2114 81.8832C42.6514 80.7832 43.5114 79.3632 43.7814 77.6332C43.9714 77.6332 44.1714 77.6332 44.3914 77.6232C44.7114 77.6232 45.0414 77.6232 45.3614 77.6132C47.4114 77.5132 48.9514 75.9632 48.9414 74.0032C48.9414 73.6232 48.9414 73.2432 48.9514 72.8632C48.9614 72.1832 48.9614 71.4832 48.9314 70.7732C50.1414 69.7232 50.6914 68.2132 50.4514 66.4332C50.4114 66.1532 50.4314 65.8632 50.4514 65.5732C50.4514 65.3232 50.4614 65.0832 50.4614 64.8332C50.4514 63.5532 49.8914 62.3932 48.9514 61.6232C49.0914 59.7832 49.2914 58.0332 50.0314 56.5032C50.5814 55.3632 50.1014 53.9932 48.9614 53.4532C47.8214 52.9032 46.4514 53.3832 45.9114 54.5232C44.8914 56.6432 44.5914 58.7832 44.4214 60.8732H43.4914C42.7614 60.8832 42.0414 60.8732 41.3114 60.8732V59.1532V46.7432C41.3114 46.5932 41.3214 46.4432 41.3414 46.3032C41.3514 46.1332 41.3714 45.9332 41.3814 45.7332C41.8114 45.5832 42.2114 45.4032 42.5914 45.1432C42.8214 44.9832 43.0714 44.8832 43.3214 44.7632C43.7214 44.5732 44.1814 44.3632 44.6514 44.0432C47.0814 42.4232 48.3114 40.0932 48.2014 37.3232C48.1214 35.2832 46.4614 33.1532 44.4814 32.5732C42.1914 31.9032 39.5914 32.7032 38.4414 34.4532C37.3614 36.0832 36.8014 38.0432 36.7614 40.2932L36.7414 40.9032C36.7214 41.3432 36.7014 41.8132 36.7214 42.3132C35.4214 42.4132 34.1114 42.4232 32.8014 42.3232C32.9914 39.8532 32.6414 37.7032 31.7614 35.7832C29.6914 31.2932 26.1814 32.2932 25.0314 32.6132C23.3614 33.0832 20.6614 34.5732 21.4214 39.1732C21.6314 40.4732 22.2814 41.6832 23.2814 42.6832C24.7014 44.0932 26.3514 45.0632 28.1814 45.6332C28.1814 45.7132 28.1614 45.7932 28.1614 45.8732C28.2914 49.3832 28.2814 52.9832 28.2614 56.4532C28.2614 57.8832 28.2614 59.3232 28.2614 60.7532C27.2414 60.7732 26.2214 60.8032 25.1814 60.8432H25.1314C25.1014 60.2932 25.0614 59.7232 24.9514 59.1332C24.1614 54.9732 22.3214 51.5332 19.4814 48.9032C17.8614 47.4032 16.4314 45.6532 15.1014 43.5532C13.1314 40.4232 11.9914 36.8032 11.6414 32.4832C11.4914 30.6732 11.6414 28.6832 12.1414 26.2332C12.8214 22.8132 14.2314 19.7232 16.4514 16.7832C19.5614 12.6532 23.4614 9.92316 28.3914 8.44316C31.4214 7.53316 34.5614 7.30316 38.0114 7.74316C41.0714 8.13316 43.9614 9.15316 46.6014 10.7832C50.1614 12.9832 52.9214 15.8332 54.7814 19.2332C56.4514 22.2732 57.4614 25.3832 57.7914 28.4732C57.9214 29.7332 59.0514 30.6632 60.3114 30.5032C61.5714 30.3732 62.4714 29.2432 62.3414 27.9832L62.3214 28.0332ZM44.4014 72.7932V73.0732C43.7114 73.0632 25.2614 73.1132 25.1014 73.1032C25.1014 72.9832 25.1014 72.8532 25.1014 72.7332V72.4532C25.1014 72.1632 25.1214 71.8832 25.1314 71.5932H44.4014C44.4014 71.9832 44.4014 72.3832 44.3914 72.7932H44.4014ZM45.8914 65.4232L45.9414 67.0632L23.5014 67.0832L23.5214 65.4032L45.8914 65.4332V65.4232ZM42.2414 37.1232C42.4314 36.7132 43.0114 36.4832 43.6214 36.7532C44.2514 37.0432 44.3114 37.5332 44.1014 38.0632C44.0114 38.2732 43.7314 39.3232 41.3714 41.2732C41.2914 38.7532 42.1014 37.4432 42.2514 37.1132L42.2414 37.1232ZM28.1914 41.3032C25.8314 39.3432 25.5514 38.2932 25.4614 38.0932C25.2414 37.5632 25.3014 37.0632 25.9414 36.7832C26.5514 36.5032 27.1314 36.7332 27.3214 37.1532C27.4714 37.4832 28.2714 38.7932 28.2014 41.3132L28.1914 41.3032ZM36.7514 46.9132V60.8632C35.9614 60.8532 35.1714 60.8432 34.3814 60.8332C33.8714 60.8332 33.3514 60.8132 32.8414 60.8132C32.8414 59.3832 32.8414 57.9432 32.8414 56.5132C32.8614 53.4032 32.8614 50.1832 32.7714 46.8932C33.4114 46.9332 34.0614 46.9832 34.7014 46.9832C35.3814 46.9832 36.0714 46.9532 36.7514 46.9132Z" fill="#EF9E00"/>
<path d="M74.7817 54.293H72.6617V51.293C72.6617 48.723 70.5717 46.623 67.9917 46.623C65.4117 46.623 63.3217 48.713 63.3217 51.293V54.293H61.2017C59.4217 54.293 57.9717 55.743 57.9717 57.523V63.703C57.9717 67.473 61.0417 70.543 64.8117 70.543H71.1617C74.9317 70.543 78.0017 67.473 78.0017 63.703V57.523C78.0017 55.743 76.5517 54.293 74.7717 54.293H74.7817ZM66.0717 51.293C66.0717 50.233 66.9317 49.373 67.9917 49.373C69.0517 49.373 69.9117 50.233 69.9117 51.293V54.293H66.0717V51.293ZM75.2617 63.703C75.2617 65.963 73.4217 67.803 71.1617 67.803H64.8117C62.5517 67.803 60.7117 65.963 60.7117 63.703V57.523C60.7117 57.253 60.9317 57.033 61.1917 57.033H74.7717C75.0417 57.033 75.2517 57.253 75.2517 57.523V63.703H75.2617Z" fill="#EF9E00"/>
<path d="M67.8616 59.0137C66.5116 59.0137 65.4216 60.1037 65.4216 61.4537C65.4216 62.8037 66.5116 65.5237 67.8616 65.5237C69.2116 65.5237 70.3016 62.8037 70.3016 61.4537C70.3016 60.1037 69.2116 59.0137 67.8616 59.0137Z" fill="#EF9E00"/>
</svg>
