<svg width="85" height="85" viewBox="0 0 85 85" fill="none" xmlns="http://www.w3.org/2000/svg">
<path d="M35.25 71H11.27C7.54 71 4.5 67.96 4.5 64.23V11.27C4.5 7.54 7.54 4.5 11.27 4.5H61.23C64.96 4.5 68 7.54 68 11.27V28.25C68 29.49 69.01 30.5 70.25 30.5C71.49 30.5 72.5 29.49 72.5 28.25V11.27C72.5 5.06 67.44 0 61.23 0H11.27C5.06 0 0 5.06 0 11.27V64.23C0 70.44 5.06 75.5 11.27 75.5H35.25C36.49 75.5 37.5 74.49 37.5 73.25C37.5 72.01 36.49 71 35.25 71Z" fill="#EF9E00"/>
<path d="M13.6801 22.1699H39.3701C40.6101 22.1699 41.6201 21.1599 41.6201 19.9199C41.6201 18.6799 40.6101 17.6699 39.3701 17.6699H13.6801C12.4401 17.6699 11.4301 18.6799 11.4301 19.9199C11.4301 21.1599 12.4401 22.1699 13.6801 22.1699Z" fill="#EF9E00"/>
<path d="M13.6801 30.7891H21.9401C23.1801 30.7891 24.1901 29.7791 24.1901 28.5391C24.1901 27.2991 23.1801 26.2891 21.9401 26.2891H13.6801C12.4401 26.2891 11.4301 27.2991 11.4301 28.5391C11.4301 29.7791 12.4401 30.7891 13.6801 30.7891Z" fill="#EF9E00"/>
<path d="M43 28.5391C43 27.2991 41.99 26.2891 40.75 26.2891H29.28C28.04 26.2891 27.03 27.2991 27.03 28.5391C27.03 29.7791 28.04 30.7891 29.28 30.7891H40.75C41.99 30.7891 43 29.7791 43 28.5391Z" fill="#EF9E00"/>
<path d="M13.6801 40.6094H29.2801C30.5201 40.6094 31.5301 39.5994 31.5301 38.3594C31.5301 37.1194 30.5201 36.1094 29.2801 36.1094H13.6801C12.4401 36.1094 11.4301 37.1194 11.4301 38.3594C11.4301 39.5994 12.4401 40.6094 13.6801 40.6094Z" fill="#BB004D"/>
<path d="M41.3399 34.2892C38.7599 36.6892 36.7999 39.6992 35.6599 43.0192C35.2599 44.1892 35.8799 45.4792 37.0599 45.8792C37.2999 45.9592 37.5499 45.9992 37.7899 45.9992C38.7199 45.9992 39.5999 45.4092 39.9199 44.4792C40.8199 41.8692 42.3699 39.4792 44.4099 37.5892C45.3199 36.7392 45.3699 35.3192 44.5299 34.4092C43.6799 33.4992 42.2599 33.4492 41.3499 34.2892H41.3399Z" fill="#EF9E00"/>
<path d="M77.35 49.9903C77.35 38.1803 67.74 28.5703 55.93 28.5703C52.54 28.5703 49.29 29.3403 46.29 30.8603C45.18 31.4203 44.74 32.7703 45.29 33.8803C45.85 34.9903 47.21 35.4403 48.31 34.8703C50.68 33.6703 53.25 33.0603 55.93 33.0603C65.26 33.0603 72.85 40.6503 72.85 49.9803C72.85 59.3103 65.26 66.9003 55.93 66.9003C51.02 66.9003 46.36 64.7703 43.14 61.0603C40.48 57.9903 39.01 54.0503 39.01 49.9803C39.01 48.7403 38 47.7303 36.76 47.7303C35.52 47.7303 34.51 48.7403 34.51 49.9803C34.51 54.9503 36.25 59.7503 39.4 63.5703V81.3103C39.4 82.2003 39.84 83.0303 40.58 83.5303C41.03 83.8303 41.55 83.9903 42.08 83.9903C42.42 83.9903 42.75 83.9303 43.08 83.8003L56.65 78.3703L68.72 83.7303C69.55 84.1003 70.5 84.0203 71.26 83.5303C72.02 83.0303 72.48 82.2003 72.48 81.2903V63.5903C75.53 59.8903 77.37 55.1503 77.37 49.9803L77.35 49.9903ZM58.03 74.0803C57.2 73.7103 56.24 73.7003 55.4 74.0303L43.89 78.6303V67.7103C47.41 70.1003 51.59 71.4203 55.93 71.4203C60.27 71.4203 64.53 70.0503 67.97 67.7103V78.5003L58.03 74.0803Z" fill="#EF9E00"/>
<path d="M67.58 46.6707C67.27 45.8007 66.51 45.2007 65.59 45.0907L60.38 44.4907L57.91 39.8507C57.48 39.0407 56.63 38.5607 55.72 38.5807C54.8 38.6107 54 39.1407 53.61 39.9807L51.43 44.7607L46.26 45.6707C45.35 45.8307 44.63 46.4807 44.37 47.3607C44.11 48.2407 44.37 49.1807 45.05 49.8007L48.92 53.3507L48.19 58.5407C48.06 59.4507 48.45 60.3407 49.21 60.8607C49.62 61.1407 50.09 61.2807 50.56 61.2807C50.96 61.2807 51.37 61.1807 51.75 60.9707L56.32 58.3907L61.03 60.6907C61.86 61.1007 62.82 61.0007 63.55 60.4407C64.28 59.8807 64.62 58.9707 64.44 58.0607L63.4 52.9207L67.04 49.1407C67.68 48.4807 67.88 47.5307 67.58 46.6707ZM59.4 50.5807C58.85 51.1507 58.61 51.9507 58.77 52.7307L59.19 54.7807L57.31 53.8607C56.6 53.5107 55.76 53.5407 55.08 53.9307L53.25 54.9607L53.54 52.8807C53.65 52.0907 53.36 51.3007 52.78 50.7807L51.24 49.3607L53.28 49.0007C54.09 48.8707 54.76 48.3407 55.07 47.6307L55.94 45.7207L56.93 47.5707C57.31 48.2807 58.01 48.7507 58.77 48.8207L60.85 49.0607L59.4 50.5607V50.5807Z" fill="#EF9E00"/>
</svg>
