<svg width="85" height="85" viewBox="0 0 85 85" fill="none" xmlns="http://www.w3.org/2000/svg">
<path d="M30 49H43" stroke="#BB004D" stroke-width="4.6" stroke-linecap="round" stroke-linejoin="round"/>
<path d="M82.6477 24.4902H31.5331C30.438 24.4902 29.5428 25.3768 29.5428 26.4806C29.5428 27.5844 30.4293 28.4709 31.5331 28.4709H80.6574V67.8086H15.6973V47.9572C15.6973 46.8621 14.8107 45.9669 13.7069 45.9669C12.6031 45.9669 11.7166 46.8534 11.7166 47.9572V69.7902C11.7166 70.8854 12.6031 71.7806 13.7069 71.7806H82.6477C83.7428 71.7806 84.6381 70.894 84.6381 69.7902V26.4806C84.6381 25.3855 83.7515 24.4902 82.6477 24.4902Z" fill="#EF9E00"/>
<path d="M74.0432 37.7793H31.8287C30.7336 37.7793 29.8384 38.6658 29.8384 39.7696C29.8384 40.8735 30.7249 41.76 31.8287 41.76H74.0432C75.1384 41.76 76.0336 40.8735 76.0336 39.7696C76.0336 38.6658 75.1471 37.7793 74.0432 37.7793Z" fill="#EF9E00"/>
<path d="M74.0433 47.0527H50.7328C49.6377 47.0527 48.7424 47.9393 48.7424 49.0431C48.7424 50.1469 49.629 51.0334 50.7328 51.0334H74.0433C75.1385 51.0334 76.0337 50.1469 76.0337 49.0431C76.0337 47.9393 75.1471 47.0527 74.0433 47.0527Z" fill="#EF9E00"/>
<path d="M19.7473 58.3087C19.7473 59.4038 20.6338 60.2991 21.7377 60.2991H74.043C75.1381 60.2991 76.0333 59.4125 76.0333 58.3087C76.0333 57.2049 75.1468 56.3184 74.043 56.3184H21.7377C20.6425 56.3184 19.7473 57.2049 19.7473 58.3087Z" fill="#EF9E00"/>
<path d="M27.1005 39.5607V27.0015C27.1005 24.6809 25.2145 22.8035 22.9025 22.8035H21.2511V19.2922C21.2511 15.268 17.9745 12 13.959 12C9.94353 12 6.65815 15.268 6.65815 19.2922V22.8035H5.19798C2.87736 22.8035 1 24.6896 1 27.0015V39.5607C1 41.8726 2.88605 43.7587 5.19798 43.7587H22.9025C25.2232 43.7587 27.1005 41.8726 27.1005 39.5607ZM10.6389 19.2922C10.6389 17.4583 12.1251 15.972 13.959 15.972C15.7929 15.972 17.2791 17.4583 17.2791 19.2922V22.8035H10.6389V19.2922ZM4.97201 39.5607V27.0015C4.97201 26.8798 5.0763 26.7755 5.19798 26.7755H22.9025C23.0242 26.7755 23.1285 26.8798 23.1285 27.0015V39.5607C23.1285 39.6824 23.0242 39.7867 22.9025 39.7867H5.19798C5.0763 39.7867 4.97201 39.6824 4.97201 39.5607Z" fill="#EF9E00"/>
<path d="M13.9417 28.1582C11.9688 28.1582 10.3608 29.7661 10.3608 31.7391C10.3608 32.9646 10.9866 34.051 11.934 34.6942V36.615C11.934 37.7101 12.8205 38.6054 13.9243 38.6054C15.0282 38.6054 15.9147 37.7188 15.9147 36.615V34.7203C16.8794 34.0771 17.5226 32.982 17.5226 31.7391C17.5226 29.7661 15.9147 28.1582 13.9417 28.1582Z" fill="#EF9E00"/>
</svg>
