<svg width="85" height="85" viewBox="0 0 85 85" fill="none" xmlns="http://www.w3.org/2000/svg">
<path d="M5.05692 59C4.82315 59 4.58938 58.9613 4.35561 58.8646C3.28566 58.4486 2.7372 57.1812 3.12382 56.03L6.00998 47.4586C6.3966 46.3074 7.57444 45.7172 8.64439 46.1332C9.71434 46.5492 10.2628 47.8165 9.87618 48.9678L6.99002 57.5392C6.68432 58.4389 5.90209 59 5.05692 59Z" fill="#BB004D"/>
<path d="M82.8735 71.0866C82.8735 71.0866 82.8735 71.0507 82.8645 71.0237L68.3078 30.7576C68.3078 30.7576 68.2897 30.7306 68.2897 30.7216C68.2264 30.5507 68.1361 30.3887 68.0277 30.2357C68.0096 30.2087 67.9825 30.1817 67.9554 30.1547C67.8469 30.0288 67.7295 29.9028 67.5849 29.8038C67.5668 29.7948 67.5578 29.7768 67.5397 29.7678C67.3861 29.6599 67.2235 29.5879 67.0427 29.5249C67.0066 29.5159 66.9614 29.4979 66.9253 29.4889C66.8711 29.4709 66.8078 29.4529 66.7536 29.4349L49.7663 26.2226C49.5946 22.9293 47.3176 20.212 44.2454 19.3481V11.6818C46.0164 10.89 47.2634 9.12642 47.2634 7.06587C47.2634 4.2675 44.9863 2 42.1762 2C39.3661 2 37.089 4.2675 37.089 7.06587C37.089 9.12642 38.3269 10.89 40.107 11.6818V19.3481C37.9474 19.96 36.1764 21.4807 35.2548 23.4782L18.0144 20.212C17.897 20.194 17.7885 20.185 17.6711 20.185C17.653 20.185 17.644 20.185 17.6259 20.185C17.6259 20.185 17.6259 20.185 17.6169 20.185C17.4271 20.185 17.2464 20.221 17.0657 20.2749C17.0205 20.2839 16.9844 20.3019 16.9392 20.3109C16.7675 20.3739 16.6048 20.4459 16.4512 20.5539C16.4332 20.5629 16.4241 20.5809 16.4061 20.5899C16.2705 20.6888 16.1531 20.8058 16.0446 20.9408C16.0175 20.9678 15.9904 21.0038 15.9723 21.0308C15.8639 21.1747 15.7736 21.3367 15.7103 21.5167C15.7103 21.5257 15.7013 21.5347 15.6922 21.5527L8.52683 41.4292C8.13829 42.5 8.69851 43.6787 9.77377 44.0657C10.849 44.4436 12.0327 43.8947 12.4213 42.8239L17.644 28.3371L29.255 60.469H3.0692C1.93069 60.469 1 61.3868 1 62.5295C1 68.8461 8.30094 73.7951 17.6259 73.7951C26.9509 73.7951 34.2518 68.8461 34.2518 62.5295C34.2518 62.3046 34.2066 62.0886 34.1434 61.8907C34.1434 61.8727 34.1434 61.8547 34.1343 61.8277L20.8065 24.9539L34.6584 27.5723C35.1283 31.3155 38.3089 34.2308 42.1852 34.2308C45.0677 34.2308 47.5525 32.6112 48.8446 30.2537L63.6001 33.0431L49.8657 71.0417C49.8657 71.0417 49.8657 71.0777 49.8566 71.1046C49.7934 71.3026 49.7482 71.5186 49.7482 71.7435C49.7482 78.0601 57.0491 83 66.3741 83C75.6991 83 83 78.0511 83 71.7435C83 71.5186 82.9548 71.3026 82.8916 71.1046L82.8735 71.0866ZM77.9761 69.665H54.745L66.3651 37.5331L77.9851 69.665H77.9761ZM17.6259 69.647C12.096 69.647 7.27989 67.4695 5.68959 64.5541H29.5532C27.9629 67.4604 23.1558 69.647 17.6259 69.647ZM42.1762 30.0738C40.2696 30.0738 38.7064 28.5261 38.7064 26.6185C38.7064 24.711 40.2606 23.1633 42.1762 23.1633C44.0918 23.1633 45.646 24.711 45.646 26.6185C45.646 28.5261 44.0918 30.0738 42.1762 30.0738ZM66.3651 78.8699C60.8442 78.8699 56.0281 76.6924 54.4378 73.777H78.2923C76.702 76.6834 71.895 78.8699 66.3651 78.8699Z" fill="#EF9E00"/>
</svg>
