<svg width="85" height="85" viewBox="0 0 85 85" fill="none" xmlns="http://www.w3.org/2000/svg">
<g clip-path="url(#clip0_586_38759)">
<path d="M57.4398 42.4603C59.1698 43.3403 59.8998 43.6903 60.5498 44.0103C61.2298 44.3403 61.8198 44.6303 63.4298 45.4603C63.7598 45.6303 64.1098 45.7103 64.4598 45.7103C65.2798 45.7103 66.0598 45.2703 66.4598 44.4903C67.0298 43.3903 66.5998 42.0303 65.4898 41.4603C63.8298 40.6003 63.2098 40.3003 62.5098 39.9603C61.8698 39.6503 61.1598 39.3103 59.4798 38.4503C58.3698 37.8903 57.0198 38.3303 56.4498 39.4303C55.8798 40.5303 56.3298 41.8903 57.4298 42.4603H57.4398Z" fill="#BB004D"/>
<path d="M79.7101 49.0592C79.4001 48.8592 78.4401 48.2392 71.4901 44.6292C70.3901 44.0592 69.0301 44.4892 68.4601 45.5892C67.8901 46.6892 68.3201 48.0492 69.4201 48.6192C75.3001 51.6692 76.8601 52.5692 77.2701 52.8292C80.4401 54.8892 79.7201 56.9392 79.5201 57.3692C78.2501 60.0892 75.6601 59.7392 74.8001 59.5392L42.1701 40.9592L44.6001 35.9892C46.5501 36.9792 48.8401 38.1392 51.4501 39.4692C51.7802 39.6392 52.1202 39.7092 52.4701 39.7092C53.2901 39.7092 54.0801 39.2592 54.4801 38.4792C55.0401 37.3692 54.6002 36.0192 53.4902 35.4492C47.7301 32.5192 43.5001 30.3792 41.1401 29.1792L41.6901 28.2192C41.8501 28.1892 42.0101 28.1692 42.1601 28.1292C43.7101 27.7192 45.0001 26.7192 45.8001 25.3392C46.6001 23.9492 46.8102 22.3392 46.4002 20.7992C45.9902 19.2492 45.0001 17.9592 43.6101 17.1592L27.4201 7.80917C26.0301 6.99917 24.4201 6.78917 22.8701 7.20917C21.3301 7.61917 20.0301 8.60917 19.2301 9.99917C18.1501 11.8792 18.2001 14.0992 19.1801 15.8792L10.1301 31.5392C9.68015 31.5592 9.23015 31.6192 8.79015 31.7392C7.24015 32.1492 5.95015 33.1492 5.15015 34.5292C4.35015 35.9192 4.14015 37.5292 4.55015 39.0792C4.96015 40.6192 5.95015 41.9192 7.34015 42.7192L23.5401 52.0692C24.4801 52.6092 25.5101 52.8692 26.5201 52.8692C28.5901 52.8692 30.6101 51.7992 31.7201 49.8792C32.6501 48.2692 32.7401 46.3992 32.1401 44.7792L34.0301 41.5192L72.8201 63.6092C72.9601 63.6892 73.1101 63.7492 73.2601 63.7992C73.9601 64.0192 74.8901 64.1792 75.9301 64.1792C78.5401 64.1792 81.8001 63.1392 83.5501 59.3692C84.5901 57.3492 85.1301 52.5992 79.7101 49.0792V49.0592ZM28.9201 41.3292L14.4801 32.9992L22.6401 18.8892L37.0802 27.2192L36.0701 28.9592C36.0701 28.9592 36.0101 29.0392 35.9901 29.0892C35.9901 29.0992 35.9901 29.1192 35.9701 29.1292L28.9201 41.3192V41.3292ZM23.1301 12.2492C23.4101 11.7692 23.9101 11.4992 24.4201 11.4992C24.6701 11.4992 24.9301 11.5592 25.1601 11.6992L41.3601 21.0492C41.7001 21.2492 41.9501 21.5692 42.0501 21.9492C42.1501 22.3292 42.1002 22.7392 41.9002 23.0792C41.4902 23.7892 40.5801 24.0392 39.8701 23.6292L23.6801 14.2792C22.9701 13.8692 22.7201 12.9592 23.1301 12.2392V12.2492ZM27.8201 47.6092C27.4101 48.3192 26.4901 48.5692 25.7801 48.1592L9.58015 38.8092C9.24015 38.6092 8.99015 38.2892 8.89015 37.8992C8.79015 37.5192 8.84015 37.1092 9.04015 36.7692C9.32015 36.2892 9.82015 36.0292 10.3301 36.0292C10.5801 36.0292 10.8401 36.0892 11.0701 36.2292L27.2701 45.5792C27.9801 45.9892 28.2301 46.8992 27.8201 47.6192V47.6092ZM38.8801 33.0792C39.3601 33.3192 39.9202 33.6092 40.5802 33.9392L38.2501 38.7192L36.2801 37.5992L38.8901 33.0892L38.8801 33.0792Z" fill="#EF9E00"/>
<path d="M33.8399 65.9295C33.6399 61.1195 29.6699 57.2695 24.8199 57.2695H9.90987C5.01987 57.2695 1.02987 61.1795 0.879874 66.0395L0.0398742 70.9095C-0.110126 71.7695 0.129874 72.6395 0.689874 73.3095C1.24987 73.9795 2.06987 74.3595 2.94987 74.3595H32.3399C33.2599 74.3595 34.1399 73.9195 34.6999 73.1895C35.2499 72.4495 35.4299 71.4895 35.1799 70.5995L33.8499 65.9295H33.8399ZM9.89987 61.7695H24.8099C26.4999 61.7695 27.9699 62.6895 28.7599 64.0595H5.95987C6.73987 62.6895 8.21987 61.7695 9.90987 61.7695H9.89987ZM4.77987 69.8595L4.99987 68.5595H29.8999L30.2699 69.8595H4.78987H4.77987Z" fill="#EF9E00"/>
</g>
<defs>
<clipPath id="clip0_586_38759">
<rect width="85" height="85" fill="white"/>
</clipPath>
</defs>
</svg>
