<svg width="85" height="85" viewBox="0 0 85 85" fill="none" xmlns="http://www.w3.org/2000/svg">
<path d="M8.40988 19.56C10.0699 19.56 11.6699 18.9 12.8499 17.72C14.0299 16.54 14.6899 14.95 14.6899 13.28C14.6899 11.61 14.0299 10.02 12.8499 8.84C11.6699 7.66 10.0799 7 8.40988 7C6.73988 7 5.14988 7.66 3.96988 8.84C2.78988 10.02 2.12988 11.61 2.12988 13.28C2.12988 14.95 2.78988 16.54 3.96988 17.72C5.14988 18.9 6.73988 19.56 8.40988 19.56Z" fill="#EF9E00"/>
<path d="M24.7198 55.8104C24.4298 54.9304 23.6098 54.3304 22.6798 54.3304H13.0298V33.3804C15.2898 35.5404 16.2898 37.4604 16.3698 37.6204C16.7198 38.3604 17.4698 38.8204 18.2898 38.8204H27.6698C28.8598 38.8204 29.8098 37.8604 29.8098 36.6804C29.8098 35.5004 28.8498 34.5504 27.6698 34.5504H19.4998C17.7798 31.8704 12.7398 25.5104 2.57977 23.4104C1.42977 23.1704 0.299766 23.9104 0.0597656 25.0704C0.0597656 25.1004 0.0597656 25.1204 0.0597656 25.1504C0.0297656 25.2904 0.00976562 25.4404 0.00976562 25.6004V49.7104C0.00976562 52.1104 0.939766 54.3604 2.63977 56.0604C4.33977 57.7604 6.58977 58.6904 8.98977 58.6904H9.06977C9.06977 58.6904 9.13976 58.6904 9.19977 58.6704L10.4498 58.5904C10.5098 58.5904 10.5698 58.6104 10.6298 58.6104H19.0498L17.1798 77.2804C17.0598 78.5204 17.9598 79.6204 19.1998 79.7404C19.2798 79.7404 19.3498 79.7504 19.4298 79.7504C20.5698 79.7504 21.5498 78.8804 21.6698 77.7204L22.9998 64.3704L27.2098 77.3604C27.4998 78.2604 28.3398 78.8404 29.2398 78.8404C29.4598 78.8404 29.6898 78.8004 29.8998 78.7304C31.0198 78.3704 31.6398 77.1604 31.2698 76.0404L24.7098 55.8004L24.7198 55.8104ZM4.27977 49.7104V28.2804C5.96977 28.8204 7.45977 29.4804 8.75977 30.2204V54.4104C7.58977 54.3504 6.49977 53.8704 5.66977 53.0404C4.76977 52.1504 4.28977 50.9804 4.28977 49.7104H4.27977Z" fill="#EF9E00"/>
<path d="M75.2898 19.56C76.9498 19.56 78.5498 18.9 79.7298 17.72C80.9098 16.54 81.5698 14.95 81.5698 13.28C81.5698 11.61 80.9098 10.02 79.7298 8.84C78.5498 7.66 76.9598 7 75.2898 7C73.6198 7 72.0298 7.66 70.8498 8.84C69.6698 10.02 69.0098 11.61 69.0098 13.28C69.0098 14.95 69.6698 16.54 70.8498 17.72C72.0298 18.9 73.6198 19.56 75.2898 19.56Z" fill="#EF9E00"/>
<path d="M83.6498 25.1099C83.6498 25.1099 83.6498 25.0699 83.6498 25.0499C83.4198 23.8899 82.2898 23.1399 81.1298 23.3899C70.9698 25.4799 65.9298 31.8499 64.2098 34.5299H56.0398C54.8498 34.5299 53.8998 35.4899 53.8998 36.6699C53.8998 37.8499 54.8598 38.8099 56.0398 38.8099H65.4298C66.2398 38.8099 66.9798 38.3299 67.3498 37.6099C67.4298 37.4499 68.4298 35.5299 70.6898 33.3599V54.3299H61.0398C60.1098 54.3299 59.2898 54.9299 58.9998 55.8099L52.4398 76.0499C52.0798 77.1699 52.6898 78.3799 53.8098 78.7399C54.0298 78.8099 54.2598 78.8399 54.4698 78.8399C55.3698 78.8399 56.2098 78.2799 56.4998 77.3699L60.5098 64.9899L61.1698 77.6099C61.2298 78.8099 62.2298 79.7399 63.4198 79.7399C63.4598 79.7399 63.4998 79.7399 63.5398 79.7399C64.7798 79.6699 65.7298 78.6199 65.6698 77.3699L64.6798 58.6099H73.0798C73.1398 58.6099 73.1998 58.5999 73.2598 58.5899L74.4098 58.6599C74.4998 58.6799 74.6298 58.6799 74.7298 58.6799C77.1298 58.6799 79.3798 57.7599 81.0798 56.0499C82.7798 54.3499 83.7098 52.0999 83.7098 49.6999V25.5899C83.7098 25.4199 83.6898 25.2599 83.6498 25.0999V25.1099ZM78.0498 53.0399C77.2198 53.8699 76.1298 54.3599 74.9598 54.4099V30.1999C76.2598 29.4599 77.7498 28.7999 79.4398 28.2599V49.7099C79.4398 50.9599 78.9398 52.1499 78.0598 53.0399H78.0498Z" fill="#EF9E00"/>
<path d="M16.5998 26.17L32.1098 32.25C32.3598 32.35 32.6198 32.4 32.8898 32.4V32.42C33.4098 32.42 33.9398 32.22 34.3398 31.85C34.3498 31.84 34.8598 31.39 35.7698 30.85V41.89H18.5398C17.5498 41.89 16.7498 42.84 16.7498 44.03C16.7498 45.22 17.5498 46.17 18.5398 46.17H68.2198C69.2098 46.17 70.0098 45.22 70.0098 44.03C70.0098 42.84 69.2098 41.89 68.2198 41.89H49.8198V30.82C50.7298 31.37 51.2498 31.82 51.2598 31.82C51.6598 32.19 52.1798 32.39 52.7098 32.39V32.37C52.9698 32.37 53.2298 32.32 53.4898 32.22L68.9998 26.14C70.0898 25.71 70.6398 24.48 70.2098 23.37C69.7798 22.28 68.5498 21.74 67.4398 22.16L53.0598 27.8C51.3598 26.6 47.7598 24.59 42.8998 24.59C42.8398 24.59 42.7798 24.6 42.7098 24.61C37.8498 24.61 34.2598 26.63 32.5598 27.82L18.1798 22.18C17.0898 21.75 15.8398 22.29 15.4098 23.39C14.9798 24.48 15.5098 25.73 16.6198 26.16L16.5998 26.17ZM45.5298 41.89H40.0498V29.18C40.8698 29.01 41.7498 28.91 42.6998 28.91C42.7598 28.91 42.8198 28.9 42.8898 28.89C43.8398 28.89 44.7198 28.99 45.5298 29.16V41.89Z" fill="#EF9E00"/>
<path d="M39.2002 21.5903C42.2402 23.5103 46.2702 22.6203 48.2002 19.5803C50.1202 16.5403 49.2302 12.5203 46.1902 10.5803C43.1502 8.66032 39.1202 9.55032 37.1902 12.5903C35.2702 15.6303 36.1602 19.6603 39.2002 21.5903Z" fill="#EF9E00"/>
<path d="M41.3501 31.0902V38.8002C41.3501 39.5902 41.9901 40.2302 42.7801 40.2302C43.5701 40.2302 44.2101 39.5902 44.2101 38.8002V31.0902C44.2101 30.3002 43.5701 29.6602 42.7801 29.6602C41.9901 29.6602 41.3501 30.3002 41.3501 31.0902Z" fill="#BB004D"/>
</svg>
