<svg width="85" height="85" viewBox="0 0 85 85" fill="none" xmlns="http://www.w3.org/2000/svg">
<path d="M52.0897 33.2699C53.7097 33.2299 56.2297 32.8299 58.7997 31.0899C63.0097 28.2299 63.9897 23.0499 63.6197 20.4499C63.2597 17.9399 60.9497 16.8399 58.7897 17.0299L54.5597 17.0699C54.5297 16.2899 54.4997 15.7799 54.4897 15.6799C54.4197 14.8399 53.8897 14.0999 53.1097 13.7799C52.9097 13.6999 48.1797 11.7499 42.4697 11.6199C36.6997 11.4999 31.7397 13.7199 31.5297 13.8099C30.7897 14.1499 30.2897 14.8599 30.2297 15.6699C30.2297 15.7799 30.1797 16.2999 30.1497 17.1299L25.9997 17.0899C23.8397 16.8999 21.5297 17.9999 21.1697 20.5099C20.7997 23.1099 21.7797 28.2899 25.9897 31.1399C28.4897 32.8299 30.9297 33.2599 32.5497 33.3199C33.1897 34.7499 33.9797 36.0699 34.9797 37.1599C35.6897 37.9299 36.4697 38.5599 37.3097 39.0499C36.9397 40.4899 36.0497 42.6299 33.9397 43.6299C32.8497 44.1499 32.1497 45.2599 32.1497 46.4599V47.5099C31.9197 47.6199 31.7097 47.7499 31.5297 47.9299L27.1097 52.2199C26.6797 52.6399 26.4297 53.2199 26.4297 53.8299V60.5399C26.4297 61.7799 27.4397 62.7899 28.6797 62.7899H55.5397C56.7797 62.7899 57.7897 61.7799 57.7897 60.5399V54.2299C57.7897 53.6999 57.6097 53.1899 57.2697 52.7899L53.3497 48.0899C53.1497 47.8499 52.8997 47.6599 52.6297 47.5199V46.4999C52.6297 45.2899 51.9297 44.1799 50.8397 43.6599C48.6597 42.6299 47.7797 40.3699 47.4397 38.9299C48.2297 38.4499 48.9597 37.8599 49.6297 37.1299C50.6497 36.0299 51.4597 34.6899 52.1097 33.2399L52.0897 33.2699ZM58.9197 21.5199C58.9197 21.5199 59.0597 21.5199 59.1097 21.5099C59.1297 21.5099 59.1497 21.5099 59.1797 21.5099C59.1797 22.8699 58.6097 25.7699 56.2597 27.3599C55.3097 27.9999 54.3897 28.3599 53.5897 28.5599C54.1297 26.1299 54.3797 23.6799 54.4897 21.5599L58.8997 21.5199H58.9197ZM34.6197 17.4199C36.2097 16.8699 39.1497 16.0399 42.3497 16.1099C45.5597 16.1899 48.4597 16.9499 50.0597 17.4699C50.1997 21.8699 49.7297 30.4099 46.2997 34.1099C45.2097 35.2899 43.8897 35.8599 42.2697 35.8599C40.6497 35.8599 39.3497 35.2899 38.2697 34.1099C35.3297 30.9199 34.6197 24.0799 34.5797 19.4499C34.5797 19.4299 34.5797 19.4199 34.5797 19.3999C34.5797 19.3799 34.5797 19.3499 34.5797 19.3299C34.5797 18.6299 34.5797 17.9899 34.6097 17.4199H34.6197ZM28.4997 27.4199C26.1497 25.8299 25.5797 22.9299 25.5797 21.5699C25.5797 21.5699 25.6097 21.5699 25.6197 21.5699C25.6997 21.5699 25.7697 21.5799 25.8497 21.5799L30.1597 21.6199C30.2597 23.7199 30.4997 26.1599 31.0297 28.5699C30.2697 28.3699 29.3997 28.0199 28.4997 27.4099V27.4199ZM53.2797 58.3099H30.9197V54.7999L33.9997 51.7999H49.8697C50.0297 51.8399 50.1997 51.8599 50.3797 51.8599C50.4597 51.8599 50.5297 51.8399 50.5997 51.8399L53.2897 55.0599V58.2999L53.2797 58.3099ZM48.0497 47.2999H36.6397V47.2799C39.7097 45.4799 41.0297 42.4599 41.6097 40.3199C41.8297 40.3299 42.0597 40.3499 42.2897 40.3499C42.5797 40.3499 42.8497 40.3299 43.1297 40.3099C43.6897 42.4399 45.0097 45.4699 48.0497 47.2899V47.2999Z" fill="#EF9E00"/>
<path d="M72.7898 40.06C71.5498 40.06 70.5398 41.07 70.5398 42.31C70.5398 70.15 45.6998 78.74 41.5598 79.98C11.8998 72.05 12.4598 42.41 12.4998 41.07V11.24L41.0498 4.61L72.1598 11.64C73.3698 11.92 74.5798 11.15 74.8498 9.94C75.1198 8.73 74.3598 7.52 73.1498 7.25L41.0398 0L7.99979 7.67V41C7.98979 41.35 7.22979 75.9 41.0398 84.49L41.5998 84.63L42.1598 84.48C42.4898 84.39 75.0498 75.55 75.0498 42.3C75.0498 41.06 74.0398 40.05 72.7998 40.05L72.7898 40.06Z" fill="#EF9E00"/>
<path d="M72.79 18.1191V33.2391" stroke="#BB004D" stroke-width="4.5" stroke-miterlimit="10" stroke-linecap="round"/>
</svg>
