<svg width="85" height="85" viewBox="0 0 85 85" fill="none" xmlns="http://www.w3.org/2000/svg">
<path d="M16.5947 23.9015C18.1896 19.2675 20.9045 15.1545 24.4184 11.8867" stroke="#BB004D" stroke-width="4.5" stroke-linecap="round" stroke-linejoin="round"/>
<path d="M31.2233 7.14914C35.2147 5.13462 39.7242 4 44.5 4C60.7927 4 74 17.2073 74 33.5C74 49.7927 60.7927 63 44.5 63C35.5938 63 27.611 59.0549 22.2013 52.8145C17.715 47.6393 15 40.8866 15 33.4971C15 32.5854 15.0405 31.6852 15.1216 30.7937" stroke="#EF9E00" stroke-width="4.5" stroke-linecap="round" stroke-linejoin="round"/>
<path d="M29.2011 29.63L39.4419 27.8099C39.5197 27.7963 39.5872 27.7419 39.621 27.6704L43.9356 18.1447C44.0201 17.9576 44.2802 17.9508 44.3749 18.1311L49.2605 27.3745C49.2976 27.4459 49.3686 27.4935 49.4497 27.5037L59.7818 28.691C59.9845 28.7149 60.0723 28.9598 59.9304 29.1061L52.7101 36.6382C52.6527 36.6961 52.629 36.7777 52.6459 36.8594L54.7137 47.1199C54.7542 47.3207 54.5481 47.4806 54.3657 47.3921L45.0202 42.8061C44.9492 42.7721 44.8614 42.7721 44.7938 42.813L35.7423 47.9671C35.5666 48.0691 35.3503 47.9194 35.3807 47.7187L36.8268 37.3493C36.837 37.2676 36.8099 37.1894 36.7491 37.1349L29.0794 30.0553C28.9308 29.9158 29.0017 29.6674 29.2011 29.63Z" stroke="#EF9E00" stroke-width="4.5" stroke-linecap="round" stroke-linejoin="round"/>
<path d="M22.5195 53.1816V81.7149C22.5195 82.178 22.9884 82.4964 23.4197 82.3227L44.9745 73.7002C45.4116 73.5266 45.9007 73.5352 46.332 73.7263L65.5597 82.2735C65.9938 82.4675 66.4801 82.1491 66.4801 81.6744V54.0963" stroke="#EF9E00" stroke-width="4.5" stroke-linecap="round" stroke-linejoin="round"/>
</svg>
