<svg width="85" height="85" viewBox="0 0 85 85" fill="none" xmlns="http://www.w3.org/2000/svg">
<path d="M74.04 20.6406C72.8 20.6406 71.79 21.6506 71.79 22.8906C71.79 24.1306 72.8 25.1406 74.04 25.1406C75.35 25.1406 76.41 26.2006 76.41 27.5106V60.4706H10.5V27.5106C10.5 26.2006 11.56 25.1406 12.87 25.1406C14.18 25.1406 15.12 24.1306 15.12 22.8906C15.12 21.6506 14.11 20.6406 12.87 20.6406C9.08 20.6406 6 23.7206 6 27.5106V65.6006C6 69.3906 9.08 72.4706 12.87 72.4706H35.73L30.29 80.5006C29.82 81.1906 29.77 82.0806 30.16 82.8206C30.55 83.5606 31.32 84.0206 32.15 84.0206H55.81C56.65 84.0206 57.42 83.5506 57.8 82.8106C58.19 82.0706 58.13 81.1706 57.65 80.4806L52.08 72.4706H74.04C77.83 72.4706 80.91 69.3906 80.91 65.6006V27.5106C80.91 23.7206 77.83 20.6406 74.04 20.6406ZM36.38 79.5106L41.02 72.6606H46.73L51.49 79.5106H36.37H36.38ZM74.04 67.9706H12.87C11.56 67.9706 10.5 66.9106 10.5 65.6006V64.9606H76.41V65.6006C76.41 66.9106 75.35 67.9706 74.04 67.9706Z" fill="#EF9E00"/>
<path d="M34.73 39.1195C35.35 39.1195 35.96 38.8695 36.4 38.3795L42.18 31.9595C42.46 32.0195 42.75 32.0495 43.04 32.0495C45.36 32.0495 47.24 30.1695 47.24 27.8495C47.24 26.4395 46.54 25.1995 45.47 24.4395V13.5195C45.47 12.2795 44.46 11.2695 43.22 11.2695C41.98 11.2695 40.97 12.2795 40.97 13.5195V24.2295C39.71 24.9495 38.85 26.2995 38.85 27.8595C38.85 28.1895 38.9 28.4995 38.97 28.8095L33.06 35.3795C32.23 36.2995 32.3 37.7295 33.23 38.5595C33.66 38.9495 34.2 39.1395 34.73 39.1395V39.1195Z" fill="#BB004D"/>
<path d="M16.2102 28.09C16.3402 42.79 28.3302 54.7 43.0502 54.7C57.7702 54.7 69.7602 42.78 69.8902 28.09C69.8902 28.07 69.8902 28.05 69.8902 28.03C69.8902 28.02 69.8902 28.01 69.8902 27.99C69.8902 27.94 69.8902 27.9 69.8902 27.85C69.9002 13.04 57.8602 1 43.0502 1C28.2402 1 16.2002 13.04 16.2002 27.85C16.2002 27.9 16.2002 27.94 16.2002 27.99C16.2002 28 16.2002 28.01 16.2002 28.03C16.2002 28.05 16.2002 28.07 16.2002 28.09H16.2102ZM43.0502 5.5C54.6702 5.5 64.2502 14.42 65.3002 25.78H63.7602C62.5202 25.78 61.5102 26.79 61.5102 28.03C61.5102 29.27 62.5202 30.28 63.7602 30.28H65.2702C64.1402 40.67 55.8702 48.94 45.4802 50.07V47.85C45.4802 46.61 44.4702 45.6 43.2302 45.6C41.9902 45.6 40.9802 46.61 40.9802 47.85V50.1C30.4302 49.12 21.9802 40.78 20.8402 30.28H22.7002C23.9402 30.28 24.9502 29.27 24.9502 28.03C24.9502 26.79 23.9402 25.78 22.7002 25.78H20.8002C21.8502 14.43 31.4302 5.5 43.0502 5.5Z" fill="#EF9E00"/>
</svg>
