<svg width="85" height="85" viewBox="0 0 85 85" fill="none" xmlns="http://www.w3.org/2000/svg">
<path d="M42.4897 73.1248C44.8876 73.6969 47.3897 74 49.9626 74C67.6557 74 82 59.6724 82 42C82 24.3276 67.6572 10 49.9626 10C37.9519 10 27.4848 16.6014 22 26.3692" stroke="#EF9E00" stroke-width="4.5" stroke-linecap="round" stroke-linejoin="round"/>
<path d="M38.6112 12C38.6112 12 45.6282 14.4121 45.9201 15.317C46.0908 15.8451 46.0624 17.3986 46.0085 18.6015C45.971 19.4416 46.6238 20.1426 47.4382 20.1426H48.335C48.6718 20.1426 49.0042 20.0793 49.3186 19.9543L51.2813 19.176C52.1227 18.8424 53.0734 19.0046 53.765 19.5991L53.8863 19.7041C54.1872 19.962 54.2711 20.4005 54.0914 20.7588C53.3039 22.3184 51.1855 26.3519 50.0118 27.0793C48.5506 27.9842 44.456 29.4913 44.164 30.0951L42.8241 32.8577C42.6025 33.3148 42.0456 33.4708 41.6294 33.1943L38.2234 30.9213C37.7204 30.5862 37.1096 30.4704 36.5242 30.6001L33.9926 31.1591C33.6138 31.2425 33.3413 31.5853 33.3354 31.9852L33.3174 33.3318C33.3069 34.1657 33.6812 34.9532 34.3279 35.4535L39.4196 39.3944C39.4631 39.4283 39.502 39.4654 39.5379 39.5071L41.8674 42.177C42.0246 42.3577 42.2492 42.4612 42.4843 42.4612H47.4652C48.6883 42.4612 49.8306 43.0912 50.5103 44.1413L52.1017 46.6028C52.2559 46.8406 52.5149 46.9842 52.7934 46.9842H55.1693C55.6828 46.9842 56.0736 47.4598 55.9883 47.9818L55.4463 51.3342C55.337 52.0137 55.0241 52.6391 54.5525 53.124C54.5226 53.1549 54.4911 53.1827 54.4582 53.2074L48.2706 57.9759C47.823 58.2832 47.8215 60.4312 47.8215 62.431C47.8215 62.4464 47.8215 62.4603 47.8215 62.4758L47.7331 64.1883C47.7032 64.7735 47.1253 65.155 46.5968 64.9388C45.8453 64.6315 45.236 64.0385 44.8931 63.2834L42.9244 58.938C42.7762 58.6106 42.6998 58.2554 42.6998 57.8941V52.7982C42.6998 52.5511 42.5965 52.3164 42.4169 52.1527L38.3058 48.4419C38.1261 48.2798 38.0228 48.0435 38.0228 47.7964V45.4709C38.0228 45.0755 39.0154 44.0687 39.7011 43.4201C40.0454 43.0943 40.0589 42.5415 39.7355 42.1956L37.6441 39.9611C37.5677 39.8793 37.2428 39.6739 36.9449 39.5117C36.6664 39.3589 36.3491 39.2955 36.0347 39.3233L33 39.5951" stroke="#EF9E00" stroke-width="4.5" stroke-linecap="round" stroke-linejoin="round"/>
<path d="M81 39.2346C81 39.2346 75.1898 36 73.965 36C73.275 36 71.7083 36.4836 70.471 36.9043C69.3795 37.2769 68.4935 38.038 68.0042 39.0198L65.172 44.7015C64.9195 45.2084 64.9462 45.7987 65.2441 46.2837L67.2201 49.5037H70.7956C71.5876 49.5037 72.2839 49.9887 72.5097 50.6958C73.0444 52.3774 73.9415 55.3797 73.9587 56.6376C73.9681 57.3301 73.8113 58.791 73.9587 59.7757C74.0011 60.0577 75.7622 61 75.7622 61" stroke="#EF9E00" stroke-width="4.5" stroke-linecap="round" stroke-linejoin="round"/>
<path d="M10 41.5C10 36.8059 13.8062 33 18.5 33C23.1938 33 27 36.8059 27 41.5C27 46.1941 23.1938 50 18.5 50C13.8062 50 10 46.1941 10 41.5Z" stroke="#EF9E00" stroke-width="4.5" stroke-linecap="round" stroke-linejoin="round"/>
<path d="M3 64C2.53226 65.2446 2.19124 66.0892 2 67.5" stroke="#BB004D" stroke-width="3.9084" stroke-linecap="round" stroke-linejoin="round"/>
<path d="M3.45898 72H34.5406C35.3463 72 35.9998 71.2565 35.9998 70.3398C35.9998 61.9026 29.9326 55 22.5165 55H15.4817C11.0287 55 7.78392 57.1437 5.9833 59.6072" stroke="#EF9E00" stroke-width="4.5" stroke-linecap="round" stroke-linejoin="round"/>
</svg>
