<svg width="85" height="85" viewBox="0 0 85 85" fill="none" xmlns="http://www.w3.org/2000/svg">
<g clip-path="url(#clip0_586_38751)">
<path d="M29.5189 29.6073H11.807C10.7647 29.6073 9.9126 28.7634 9.9126 27.7128C9.9126 26.6622 10.7564 25.8184 11.807 25.8184H29.5189C30.5613 25.8184 31.4133 26.6622 31.4133 27.7128C31.4133 28.7634 30.5695 29.6073 29.5189 29.6073Z" fill="#BB004D"/>
<path d="M16.5138 38.1034H7.07462C6.03226 38.1034 5.18018 37.2595 5.18018 36.2089C5.18018 35.1583 6.02399 34.3145 7.07462 34.3145H16.5138C17.5561 34.3145 18.4082 35.1583 18.4082 36.2089C18.4082 37.2595 17.5644 38.1034 16.5138 38.1034Z" fill="#BB004D"/>
<path d="M22.2551 46.5916H2.33439C1.29203 46.5916 0.439941 45.7478 0.439941 44.6972C0.439941 43.6466 1.28376 42.8027 2.33439 42.8027H22.2551C23.2974 42.8027 24.1495 43.6466 24.1495 44.6972C24.1495 45.7478 23.3057 46.5916 22.2551 46.5916Z" fill="#BB004D"/>
<path d="M59.8132 23.56C63.8337 23.56 67.0932 20.3005 67.0932 16.28C67.0932 12.2594 63.8337 9 59.8132 9C55.7926 9 52.5332 12.2594 52.5332 16.28C52.5332 20.3005 55.7926 23.56 59.8132 23.56Z" fill="#EF9E00"/>
<path d="M36.0045 63.2433L26.8301 72.5087C26.0938 73.2533 26.1021 74.4445 26.8383 75.1808C27.2106 75.5448 27.6904 75.7268 28.1702 75.7268C28.6501 75.7268 29.1464 75.5365 29.5104 75.1643L38.6848 65.8988C39.4211 65.1543 39.4128 63.963 38.6766 63.2268C37.9403 62.4905 36.7325 62.4988 36.0045 63.2433Z" fill="#EF9E00"/>
<path d="M84.7221 54.5334L82.2899 47.5181C81.8515 46.2524 80.9415 45.2266 79.742 44.6475C78.5341 44.0601 77.1691 43.9857 75.9034 44.4159L74.0007 45.0777L73.6781 44.1511C73.1486 42.629 71.7753 41.6362 70.2614 41.5204C70.4765 41.2143 70.6006 40.8421 70.6006 40.445C70.6006 39.4026 69.7568 38.5505 68.7062 38.5505H57.6373C57.1078 35.258 55.4368 27.9615 50.6138 22.336C45.8404 16.7602 37.9565 13.4015 37.6256 13.2609C37.2699 13.112 36.8811 13.0706 36.5006 13.1533L22.892 16.0074C21.8661 16.2225 21.2126 17.2235 21.4277 18.2493C21.6428 19.2751 22.6438 19.9287 23.6696 19.7136L36.6743 16.9836C38.2875 17.7364 43.309 20.2348 46.858 23.8499L32.662 33.256C29.8245 35.1339 28.9558 38.9062 30.6848 41.8348L39.123 56.13H20.5756C19.5332 56.13 18.6812 56.9738 18.6812 58.0245C18.6812 59.0751 19.525 59.9189 20.5756 59.9189H42.4403C43.1187 59.9189 43.7474 59.5549 44.0866 58.9675C44.4258 58.3802 44.4175 57.6522 44.0701 57.0648L36.302 43.8947L52.4751 33.4711C53.7988 37.3758 54.1049 40.5525 54.1049 40.6104C54.1876 41.5866 55.0066 42.3394 55.991 42.3394H66.9358L65.2151 42.9351C64.2224 43.2742 63.4282 43.9857 62.9649 44.9288C62.5017 45.8719 62.4437 46.939 62.7829 47.9318L63.1056 48.8583L61.5089 49.4126C58.8948 50.3226 57.4967 53.1849 58.4067 55.7991L60.8306 62.8144C61.269 64.0801 62.179 65.1059 63.3786 65.685C64.0735 66.0242 64.818 66.1896 65.5708 66.1896C66.1251 66.1896 66.6794 66.0986 67.2171 65.9083L81.6199 60.9199C84.234 60.0099 85.6321 57.1476 84.7221 54.5334ZM34.3662 40.6187L33.9443 39.899C33.2411 38.6994 33.5886 37.1607 34.755 36.3996L49.2488 26.795C49.9271 27.8043 50.5145 28.8466 51.0191 29.889L34.3745 40.6187H34.3662ZM66.3485 46.6826C66.3236 46.6164 66.3733 46.5171 66.4395 46.4923L69.914 45.2928C69.9884 45.2597 70.0712 45.3093 70.1043 45.3838L70.4269 46.3103L66.6711 47.6091L66.3485 46.6826ZM62.7333 52.9698L77.1361 47.9814C77.2684 47.9318 77.409 47.9152 77.5414 47.9152C77.7234 47.9152 77.9137 47.9566 78.0791 48.0393C78.0874 48.0393 78.0957 48.0559 78.1122 48.0641L70.9067 53.2842L62.0136 53.6317C62.1459 53.3338 62.3941 53.0774 62.7333 52.9616V52.9698ZM80.379 57.3461L65.9762 62.3345C65.6618 62.4421 65.3309 62.4255 65.0331 62.2766C64.7353 62.136 64.5119 61.8795 64.4044 61.5652L62.9566 57.3875L71.6347 57.0483C72.007 57.0317 72.371 56.9076 72.6688 56.6926L79.7006 51.5966L81.1483 55.7743C81.3717 56.4196 81.0242 57.1227 80.379 57.3461Z" fill="#EF9E00"/>
</g>
<defs>
<clipPath id="clip0_586_38751">
<rect width="85" height="85" fill="white"/>
</clipPath>
</defs>
</svg>
