<svg width="85" height="85" viewBox="0 0 85 85" fill="none" xmlns="http://www.w3.org/2000/svg">
<g clip-path="url(#clip0_586_38771)">
<path d="M76.6299 71.9905L69.6199 8.67053C69.4799 7.44053 68.3699 6.54053 67.1399 6.68053C65.9099 6.82053 65.0199 7.93053 65.1499 9.16053L72.1599 72.4705C72.2199 73.0405 71.7899 73.5805 71.2099 73.6405L64.6699 74.3305L20.6899 78.9805C20.1099 79.0505 19.5799 78.6105 19.5199 78.0505L14.7499 28.9705L25.4799 27.8305C29.4999 27.4105 32.4599 24.0905 32.0699 20.4405L30.6499 6.98053L57.2499 4.50053C58.4899 4.38053 59.3999 3.29053 59.2799 2.05053C59.1599 0.810527 58.0499 -0.109473 56.8299 0.0105272L26.9599 2.80053C26.2999 2.86053 25.6999 3.21053 25.3199 3.76053L10.3999 25.2305C10.0999 25.6705 9.95994 26.2005 10.0099 26.7305L15.0399 78.5205C15.3399 81.3705 17.7599 83.5005 20.5699 83.5005C20.7599 83.5005 20.9599 83.5005 21.1599 83.4705L27.6999 82.7805L71.6799 78.1305C74.7299 77.8105 76.9499 75.0605 76.6299 72.0005V71.9905ZM26.4499 10.0205L27.5999 20.9105C27.7199 22.0805 26.5399 23.2005 25.0099 23.3605L16.5599 24.2505L26.4399 10.0205H26.4499Z" fill="#EF9E00"/>
<path d="M58.0401 11.8504L39.9101 13.7704C38.6701 13.9004 37.7801 15.0104 37.9101 16.2404C38.0301 17.4004 39.0101 18.2504 40.1401 18.2504C40.2201 18.2504 40.3001 18.2504 40.3801 18.2404L58.5101 16.3204C59.7501 16.1904 60.6401 15.0804 60.5101 13.8504C60.3801 12.6204 59.2701 11.7204 58.0401 11.8504Z" fill="#EF9E00"/>
<path d="M58.8499 19.5806L50.2499 20.4906C49.0099 20.6206 48.1199 21.7306 48.2499 22.9606C48.3699 24.1206 49.3499 24.9706 50.4799 24.9706C50.5599 24.9706 50.6399 24.9706 50.7199 24.9606L59.3199 24.0506C60.5599 23.9206 61.4499 22.8106 61.3199 21.5806C61.1899 20.3506 60.0799 19.4406 58.8499 19.5806Z" fill="#EF9E00"/>
<path d="M42.3999 28.3194C40.9099 28.4794 39.6599 29.3894 39.0499 30.7594L26.4299 59.1495C25.8199 60.5195 25.9799 62.0594 26.8699 63.2694C27.6599 64.3594 28.8899 64.9795 30.1999 64.9795C30.3499 64.9795 30.4999 64.9794 30.6499 64.9594L61.5499 61.6894C63.0399 61.5294 64.2899 60.6194 64.8999 59.2494C65.5099 57.8794 65.3499 56.3395 64.4599 55.1294L46.1799 29.9994C45.2999 28.7894 43.8799 28.1594 42.3899 28.3194H42.3999ZM30.7899 60.4194L42.9099 33.1495L60.4699 57.2794L30.7899 60.4194Z" fill="#EF9E00"/>
<path d="M41.89 42.3808L42.65 49.5408C42.77 50.7008 43.75 51.5508 44.88 51.5508C44.96 51.5508 45.04 51.5508 45.12 51.5408C46.36 51.4108 47.25 50.3008 47.12 49.0708L46.36 41.9108C46.23 40.6708 45.13 39.7708 43.89 39.9108C42.65 40.0408 41.76 41.1508 41.89 42.3808Z" fill="#BB004D"/>
<path d="M42.8501 54.5606C42.8501 56.0406 44.0401 57.2506 45.5201 57.2606C47.0001 57.2606 48.2101 56.0706 48.2201 54.5906C48.2201 53.1106 47.0301 51.9006 45.5501 51.8906C44.0701 51.8906 42.8601 53.0806 42.8501 54.5606Z" fill="#BB004D"/>
</g>
<defs>
<clipPath id="clip0_586_38771">
<rect width="85" height="85" fill="white"/>
</clipPath>
</defs>
</svg>
