<svg width="85" height="85" viewBox="0 0 85 85" fill="none" xmlns="http://www.w3.org/2000/svg">
<path d="M81.5 15.3509L42.79 0.200859C42.12 -0.0591406 41.38 -0.0591406 40.71 0.200859L1.83 15.3509C0.72 15.7809 0 16.8309 0 18.0209V24.1409C0 25.7209 1.29 27.0109 2.87 27.0109H3.26V29.7509C3.26 31.6809 4.68 33.2609 6.53 33.5509C6.47 33.8709 6.44 34.2009 6.44 34.5409C6.44 37.2109 8.38 39.4309 10.92 39.8809V58.6809C8.38 59.1309 6.44 61.3509 6.44 64.0209C6.44 64.3609 6.48 64.7009 6.54 65.0309H5.53C3.2 65.0309 1.31 66.9209 1.31 69.2509V73.2909C1.31 75.6209 3.2 77.5109 5.53 77.5109H76.83C79.16 77.5109 81.05 75.6209 81.05 73.2909V69.2509C81.05 66.9709 79.23 65.1109 76.96 65.0409C77.02 64.7109 77.06 64.3709 77.06 64.0209C77.06 61.3809 75.16 59.1809 72.66 58.6909V39.8609C75.16 39.3809 77.06 37.1809 77.06 34.5309C77.06 34.1709 77.02 33.8209 76.96 33.4909C78.65 33.0809 79.91 31.5609 79.91 29.7509V27.0109H80.46C82.04 27.0109 83.33 25.7209 83.33 24.1409V18.0209C83.33 16.8309 82.61 15.7809 81.51 15.3509H81.5ZM4.5 19.1309L41.74 4.62086L78.82 19.1309V22.5109H4.5V19.1309ZM20.28 39.9609V58.5909H15.41V39.9609H20.28ZM11.86 63.0909H23.75C24.26 63.0909 24.68 63.5109 24.68 64.0209C24.68 64.5309 24.26 64.9509 23.75 64.9509H11.86C11.35 64.9509 10.93 64.5309 10.93 64.0209C10.93 63.5109 11.35 63.0909 11.86 63.0909ZM24.67 34.5409C24.67 35.0509 24.25 35.4709 23.74 35.4709H11.85C11.34 35.4709 10.92 35.0509 10.92 34.5409C10.92 34.0309 11.34 33.6109 11.85 33.6109H23.74C24.25 33.6109 24.67 34.0309 24.67 34.5409ZM24.77 58.6909V39.8609C27.27 39.3809 29.17 37.1809 29.17 34.5309C29.17 34.2109 29.14 33.9109 29.09 33.6009H29.97C29.92 33.9009 29.89 34.2109 29.89 34.5309C29.89 37.2009 31.83 39.4209 34.37 39.8709V58.6709C31.83 59.1209 29.89 61.3409 29.89 64.0109C29.89 64.3509 29.93 64.6909 29.99 65.0209H29.08C29.14 64.6909 29.18 64.3609 29.18 64.0109C29.18 61.3709 27.28 59.1709 24.78 58.6809L24.77 58.6909ZM72.55 34.5409C72.55 35.0509 72.13 35.4709 71.62 35.4709H59.73C59.22 35.4709 58.8 35.0509 58.8 34.5409C58.8 34.0309 59.22 33.6109 59.73 33.6109H71.62C72.13 33.6109 72.55 34.0309 72.55 34.5409ZM71.62 64.9509H59.73C59.22 64.9509 58.8 64.5309 58.8 64.0209C58.8 63.5109 59.22 63.0909 59.73 63.0909H71.62C72.13 63.0909 72.55 63.5109 72.55 64.0209C72.55 64.5309 72.13 64.9509 71.62 64.9509ZM63.28 58.6009V39.9709H68.14V58.6009H63.28ZM58.78 39.8809V58.6809C56.24 59.1309 54.3 61.3509 54.3 64.0209C54.3 64.3609 54.34 64.7009 54.4 65.0309H52.52C52.58 64.7009 52.62 64.3709 52.62 64.0209C52.62 61.3809 50.72 59.1809 48.22 58.6909V39.8609C50.72 39.3809 52.62 37.1809 52.62 34.5309C52.62 34.2109 52.59 33.9109 52.54 33.6009H54.4C54.35 33.9009 54.32 34.2109 54.32 34.5309C54.32 37.2009 56.26 39.4209 58.8 39.8709L58.78 39.8809ZM48.11 64.0209C48.11 64.5309 47.69 64.9509 47.18 64.9509H35.29C34.78 64.9509 34.36 64.5309 34.36 64.0209C34.36 63.5109 34.78 63.0909 35.29 63.0909H47.18C47.69 63.0909 48.11 63.5109 48.11 64.0209ZM43.71 58.5909H38.85V39.9609H43.71V58.5909ZM48.11 34.5409C48.11 35.0509 47.69 35.4709 47.18 35.4709H35.29C34.78 35.4709 34.36 35.0509 34.36 34.5409C34.36 34.0309 34.78 33.6109 35.29 33.6109H47.18C47.69 33.6109 48.11 34.0309 48.11 34.5409ZM76.53 73.0109H5.8V69.5309H76.54V73.0109H76.53ZM75.39 29.1209H7.76V27.0209H75.41V29.1209H75.39Z" fill="#EF9E00"/>
<path d="M41.3402 20.7409C45.1402 20.7409 48.2302 17.6509 48.2302 13.8509C48.2302 10.0509 45.1402 6.96094 41.3402 6.96094C37.5402 6.96094 34.4502 10.0509 34.4502 13.8509C34.4502 17.6509 37.5402 20.7409 41.3402 20.7409ZM41.3402 11.4609C42.6602 11.4609 43.7302 12.5309 43.7302 13.8509C43.7302 15.1709 42.6602 16.2409 41.3402 16.2409C40.0202 16.2409 38.9502 15.1709 38.9502 13.8509C38.9502 12.5309 40.0202 11.4609 41.3402 11.4609Z" fill="#BB004D"/>
</svg>
