<svg width="85" height="85" viewBox="0 0 85 85" fill="none" xmlns="http://www.w3.org/2000/svg">
<path d="M29.6701 30.3809C28.2101 30.3809 26.9001 31.1409 26.1701 32.4109L11.5401 57.9209C10.8101 59.1909 10.8201 60.7009 11.5501 61.9609C12.2801 63.2209 13.5901 63.9709 15.0401 63.9709H15.0501L44.4601 63.8909C45.9201 63.8909 47.2301 63.1309 47.9601 61.8609C48.6901 60.5909 48.6801 59.0809 47.9501 57.8209L33.1701 32.3909C32.4401 31.1309 31.1301 30.3809 29.6701 30.3809C29.6701 30.3809 29.6701 30.3809 29.6601 30.3809H29.6701ZM43.6701 59.3909L15.8401 59.4709L29.6801 35.3309L43.6601 59.3909H43.6701Z" fill="#EF9E00"/>
<path d="M29.9698 52.7397C31.2098 52.7397 32.2198 51.7297 32.2098 50.4797L32.1898 43.6697C32.1898 42.4297 31.1798 41.4297 29.9398 41.4297C28.6998 41.4297 27.6898 42.4397 27.6998 43.6897L27.7198 50.4997C27.7198 51.7397 28.7298 52.7397 29.9698 52.7397Z" fill="#BB004D"/>
<path d="M29.7999 58.0394C31.1999 58.1894 32.4499 57.1794 32.5999 55.7894C32.7499 54.3894 31.7399 53.1394 30.3499 52.9894C28.9499 52.8394 27.6999 53.8494 27.5499 55.2394C27.3999 56.6394 28.4099 57.8894 29.7999 58.0394Z" fill="#BB004D"/>
<path d="M60.1202 18.38C64.6402 18.38 68.3102 14.71 68.3102 10.19C68.3102 5.67 64.6402 2 60.1202 2C55.6002 2 51.9302 5.67 51.9302 10.19C51.9302 14.71 55.6002 18.38 60.1202 18.38Z" fill="#EF9E00"/>
<path d="M82.31 38.6006L75.66 23.4206C75.42 22.8606 74.96 22.4306 74.39 22.2206C60.11 16.8606 46.42 22.0106 45.84 22.2206C45.22 22.4606 44.74 22.9506 44.52 23.5806L39.91 36.7106C39.51 37.8406 40.08 39.0906 41.19 39.5406L52.07 43.9406V61.5906C52.07 62.8306 53.08 63.8406 54.32 63.8406C55.56 63.8406 56.57 62.8306 56.57 61.5906V51.1906C56.93 51.2606 57.29 51.3006 57.67 51.3006H63.25C63.63 51.3006 63.99 51.2606 64.35 51.1906V79.2406C64.35 80.4806 65.36 81.4906 66.6 81.4906C67.84 81.4906 68.85 80.4806 68.85 79.2406V25.2506C69.87 25.4906 70.89 25.7606 71.92 26.1106L77.27 38.3306L72.19 40.5106C71.05 41.0006 70.52 42.3206 71.01 43.4706C71.5 44.6106 72.82 45.1406 73.97 44.6506L81.13 41.5806C81.68 41.3406 82.12 40.9006 82.34 40.3406C82.56 39.7806 82.55 39.1606 82.31 38.6106V38.6006ZM48.4 26.1006C49.19 25.8506 50.46 25.5006 52.07 25.1806V39.0806L44.87 36.1706L48.4 26.1006ZM64.35 43.9306V45.5906C64.35 46.2506 63.85 46.8006 63.25 46.8006H57.67C57.13 46.8006 56.69 46.3406 56.6 45.7706L57.22 46.0206C57.5 46.1306 57.78 46.1906 58.06 46.1906C58.95 46.1906 59.79 45.6606 60.15 44.7806C60.62 43.6306 60.06 42.3206 58.91 41.8506L56.56 40.9006V24.5106C58.89 24.2806 61.53 24.2106 64.34 24.4906V43.9406L64.35 43.9306Z" fill="#EF9E00"/>
<path d="M47.12 71.0803H9.1C8.77 71.0803 8.5 70.8103 8.5 70.4803V27.5403H17.02C20.66 27.5403 23.63 24.8403 23.63 21.5203V11.3203H47.12C48.36 11.3203 49.37 10.3103 49.37 9.07031C49.37 7.83031 48.36 6.82031 47.12 6.82031H19.59C18.95 6.82031 18.35 7.09031 17.92 7.56031L4.58 22.3403C4.21 22.7503 4 23.2903 4 23.8503V70.4803C4 73.2903 6.29 75.5803 9.1 75.5803H47.12C48.36 75.5803 49.37 74.5703 49.37 73.3303C49.37 72.0903 48.36 71.0803 47.12 71.0803ZM19.13 12.9403V21.5203C19.13 22.3503 18.17 23.0403 17.02 23.0403H10.01L19.13 12.9403Z" fill="#EF9E00"/>
<path d="M54.3198 65.1309C53.0798 65.1309 52.0698 66.1409 52.0698 67.3809V79.2509C52.0698 80.4909 53.0798 81.5009 54.3198 81.5009C55.5598 81.5009 56.5698 80.4909 56.5698 79.2509V67.3809C56.5698 66.1409 55.5598 65.1309 54.3198 65.1309Z" fill="#EF9E00"/>
</svg>
