<svg width="85" height="85" viewBox="0 0 85 85" fill="none" xmlns="http://www.w3.org/2000/svg">
<path d="M60 16C64.4183 16 68 12.4183 68 8C68 3.58172 64.4183 0 60 0C55.5817 0 52 3.58172 52 8C52 12.4183 55.5817 16 60 16Z" fill="#EF9E00"/>
<path d="M57.5164 43.7709L40.4058 36.8404L45.3205 22.797C45.3205 22.797 59.5187 17.3255 74.0809 22.797L81.18 39.029L73.5348 42.3119" stroke="#EF9E00" stroke-width="4.5" stroke-linecap="round" stroke-linejoin="round"/>
<path d="M47.9634 77.3304H8.75824C7.14183 77.3304 5.82031 76.0063 5.82031 74.3868V24.0749L21 10.9434H47.9634" stroke="#EF9E00" stroke-width="4.5" stroke-linecap="round" stroke-linejoin="round"/>
<path d="M66.6177 21.5831V45.5482C66.6177 47.5835 65.0086 49.2469 63.0427 49.2469H57.0867C55.1208 49.2469 53.5117 47.5835 53.5117 45.5482V21.4336" stroke="#EF9E00" stroke-width="4.5" stroke-miterlimit="10"/>
<path d="M53.5117 68.8379V81.5244" stroke="#EF9E00" stroke-width="4.5" stroke-miterlimit="10" stroke-linecap="round"/>
<path d="M53.5117 43.7715V62.648" stroke="#EF9E00" stroke-width="4.5" stroke-miterlimit="10" stroke-linecap="round"/>
<path d="M66.6177 43.7715V81.5246" stroke="#EF9E00" stroke-width="4.5" stroke-miterlimit="10" stroke-linecap="round"/>
<path d="M6 24H16.6815C19.0676 24 21 22.6037 21 20.8795V10" stroke="#EF9E00" stroke-width="4.5" stroke-miterlimit="10"/>
<path d="M12.7373 33.5586H34.2166" stroke="#EF9E00" stroke-width="4.5" stroke-linecap="round" stroke-linejoin="round"/>
<path d="M12.7373 40.7598H33.1244" stroke="#EF9E00" stroke-width="4.5" stroke-linecap="round" stroke-linejoin="round"/>
<path d="M12.7373 47.7852H19.2903" stroke="#EF9E00" stroke-width="4.5" stroke-linecap="round" stroke-linejoin="round"/>
<path d="M25.1152 47.7852H34.2166" stroke="#BB004D" stroke-width="4.5" stroke-linecap="round" stroke-linejoin="round"/>
<path d="M12.7373 55.2559H25.1152" stroke="#EF9E00" stroke-width="4.5" stroke-linecap="round" stroke-linejoin="round"/>
</svg>
