<svg width="85" height="85" viewBox="0 0 85 85" fill="none" xmlns="http://www.w3.org/2000/svg">
<g clip-path="url(#clip0_586_38704)">
<path d="M8.28471 30.4088C8.23341 29.8259 8.20776 29.2378 8.20776 28.642C8.20776 25.906 8.75409 23.2979 9.74672 20.9199" stroke="#BB004D" stroke-width="4.5" stroke-miterlimit="10" stroke-linecap="round"/>
<path d="M14.3303 14.2002C17.9673 10.6767 22.933 8.50586 28.4066 8.50586C39.5615 8.50586 48.6055 17.5217 48.6055 28.642C48.6055 39.7623 39.5615 48.7782 28.4066 48.7782C20.5246 48.7782 13.6942 44.2753 10.3674 37.7116" stroke="#EF9E00" stroke-width="4.5" stroke-miterlimit="10" stroke-linecap="round"/>
<path d="M0 -0.1875L14.3636 14.1315" stroke="#EF9E00" stroke-width="4.5" stroke-miterlimit="10" stroke-linecap="round"/>
<path d="M58.403 22.0586H74.0645C76.7782 22.0586 78.9995 24.2729 78.9995 26.9782V64.443C78.9995 67.1482 76.7782 69.3626 74.0645 69.3626H14.6812C11.9675 69.3626 9.74622 67.1482 9.74622 64.443V50.8961" stroke="#EF9E00" stroke-width="4.5" stroke-miterlimit="10" stroke-linecap="round"/>
<path d="M36.4218 57.5996H78.9997" stroke="#EF9E00" stroke-width="4.5" stroke-miterlimit="10" stroke-linecap="round"/>
<path d="M53.094 45.582H78.9998" stroke="#EF9E00" stroke-width="4.5" stroke-miterlimit="10" stroke-linecap="round"/>
<path d="M61.5585 32.7969H79" stroke="#EF9E00" stroke-width="4.5" stroke-miterlimit="10" stroke-linecap="round"/>
<path d="M67.4575 32.7969V45.5817" stroke="#EF9E00" stroke-width="4.5" stroke-miterlimit="10" stroke-linecap="round"/>
<path d="M57.7113 46.3496V57.0889" stroke="#EF9E00" stroke-width="4.5" stroke-miterlimit="10" stroke-linecap="round"/>
<path d="M67.4575 57.5996V69.3617" stroke="#EF9E00" stroke-width="4.5" stroke-miterlimit="10" stroke-linecap="round"/>
<path d="M45.9122 57.5996V69.3617" stroke="#EF9E00" stroke-width="4.5" stroke-miterlimit="10" stroke-linecap="round"/>
<path d="M21.8015 57.5996V69.3617" stroke="#EF9E00" stroke-width="4.5" stroke-miterlimit="10" stroke-linecap="round"/>
</g>
<defs>
<clipPath id="clip0_586_38704">
<rect width="85" height="85" fill="white"/>
</clipPath>
</defs>
</svg>
