<svg width="85" height="85" viewBox="0 0 85 85" fill="none" xmlns="http://www.w3.org/2000/svg">
<g clip-path="url(#clip0_586_38786)">
<path d="M78.43 45.29H78.13V21.19C78.13 21.19 78.13 21.16 78.13 21.15C78.13 21.13 78.13 21.12 78.13 21.1C78.13 20.4 77.78 19.79 77.27 19.39L61.63 2.97C61.22 2.38 60.55 2 59.78 2C59.78 2 59.77 2 59.76 2C59.76 2 59.75 2 59.74 2H15.48C11.01 2 7.38 5.63 7.38 10.1V39.05C4.95 39.14 3 41.13 3 43.57V78.37C3 80.87 5.04 82.91 7.54 82.91H78.43C80.93 82.91 82.97 80.87 82.97 78.37V49.82C82.97 47.32 80.93 45.28 78.43 45.28V45.29ZM62.03 17.07V9.92L70.64 18.95L64.99 19.03C62.3 18.85 62.02 17.68 62.02 17.24C62.02 17.18 62.02 17.12 62.02 17.06L62.03 17.07ZM15.48 6.5H57.54V17.02C57.52 17.56 57.58 19.43 59.01 21.07C60.3 22.55 62.26 23.38 64.82 23.53C64.86 23.53 64.9 23.53 64.95 23.53H64.98L73.64 23.41V45.28H31.85L26.65 40.29C25.8 39.48 24.69 39.03 23.51 39.03H11.88V10.1C11.88 8.11 13.5 6.5 15.48 6.5ZM78.48 78.37C78.48 78.37 78.46 78.41 78.44 78.41L7.51 78.37L7.55 43.53H23.55L28.75 48.52C29.6 49.33 30.72 49.78 31.89 49.78L78.49 49.82V78.37H78.48Z" fill="#EF9E00"/>
<path d="M21 34.3904H36.45C38.24 34.3904 39.7 32.9304 39.7 31.1404V12.9004C39.7 11.1104 38.24 9.65039 36.45 9.65039H21C19.21 9.65039 17.76 11.1104 17.76 12.9004V31.1404C17.76 32.9304 19.22 34.3904 21 34.3904ZM22.26 14.1604H35.2V29.8904H22.26V14.1604Z" fill="#EF9E00"/>
<path d="M47.08 31.3594H66.04C67.28 31.3594 68.29 30.3494 68.29 29.1094C68.29 27.8694 67.28 26.8594 66.04 26.8594H47.08C45.84 26.8594 44.83 27.8694 44.83 29.1094C44.83 30.3494 45.84 31.3594 47.08 31.3594Z" fill="#EF9E00"/>
<path d="M47.08 39.0391H66.04C67.28 39.0391 68.29 38.0291 68.29 36.7891C68.29 35.5491 67.28 34.5391 66.04 34.5391H47.08C45.84 34.5391 44.83 35.5491 44.83 36.7891C44.83 38.0291 45.84 39.0391 47.08 39.0391Z" fill="#BB004D"/>
</g>
<defs>
<clipPath id="clip0_586_38786">
<rect width="79.98" height="80.91" fill="white" transform="translate(3 2)"/>
</clipPath>
</defs>
</svg>
