<svg width="85" height="85" viewBox="0 0 85 85" fill="none" xmlns="http://www.w3.org/2000/svg">
<path d="M61.7664 54.1167C61.2864 54.1167 60.8064 53.9667 60.3964 53.6567C59.3864 52.8967 59.1864 51.4667 59.9464 50.4567C62.7364 46.7567 66.9764 44.6367 71.5764 44.6367C72.8364 44.6367 73.8664 45.6567 73.8664 46.9267C73.8664 48.1967 72.8464 49.2167 71.5764 49.2167C68.4164 49.2167 65.5064 50.6767 63.5964 53.2167C63.1464 53.8167 62.4664 54.1267 61.7664 54.1267V54.1167Z" fill="#BB004D"/>
<path d="M82.4364 50.0073C78.8364 32.0773 63.0764 18.9073 44.5064 17.8973V15.9873C44.5064 14.7273 43.4864 13.6973 42.2164 13.6973C40.9464 13.6973 39.9264 14.7173 39.9264 15.9873V17.8973C21.4464 18.9073 5.70636 32.0073 2.04636 49.8373C1.84636 50.8173 2.30636 51.8073 3.17636 52.2973C4.04636 52.7773 5.13636 52.6473 5.85636 51.9573C7.72636 50.1873 10.1664 49.2073 12.7264 49.2073C15.8864 49.2073 18.7964 50.6673 20.7064 53.2073C21.5664 54.3473 23.4964 54.3473 24.3564 53.2073C26.2664 50.6673 29.1764 49.2073 32.3364 49.2073C35.2564 49.2073 37.9564 50.4673 39.8564 52.6573V75.7073C39.8564 77.4173 38.4664 78.8073 36.7564 78.8073H36.5464C34.8364 78.8073 33.4464 77.4173 33.4464 75.7073C33.4464 74.4473 32.4264 73.4173 31.1564 73.4173C29.8864 73.4173 28.8664 74.4373 28.8664 75.7073C28.8664 79.9373 32.3064 83.3773 36.5464 83.3773H36.7564C40.9864 83.3773 44.4364 79.9373 44.4364 75.7073V52.6573C46.3364 50.4573 49.0364 49.2073 51.9564 49.2073C53.2164 49.2073 54.2464 48.1873 54.2464 46.9173C54.2464 45.6473 53.2264 44.6273 51.9564 44.6273C48.2664 44.6273 44.8064 45.9873 42.1464 48.4273C39.4864 45.9873 36.0264 44.6273 32.3364 44.6273C28.6464 44.6273 25.1864 45.9873 22.5264 48.4273C19.8664 45.9873 16.4064 44.6273 12.7164 44.6273C11.1164 44.6273 9.55636 44.8873 8.07636 45.3873C13.2964 31.7773 26.8464 22.3673 42.2064 22.3673C59.5864 22.3673 74.6164 34.3673 77.9364 50.9073C78.1864 52.1473 79.3864 52.9473 80.6264 52.6973C81.8664 52.4473 82.6664 51.2473 82.4164 50.0073H82.4364Z" fill="#EF9E00"/>
<path d="M16.9562 16.998C17.5462 16.998 18.1262 16.778 18.5762 16.328L26.7762 8.12797C27.6662 7.23797 27.6662 5.78797 26.7762 4.89797C25.8862 4.00797 24.4362 4.00797 23.5462 4.89797L15.3462 13.098C14.4562 13.988 14.4562 15.438 15.3462 16.328C15.7962 16.778 16.3762 16.998 16.9662 16.998H16.9562Z" fill="#EF9E00"/>
<path d="M35.6564 13.7675C36.2464 13.7675 36.8264 13.5475 37.2764 13.0975L45.4764 4.8975C46.3664 4.0075 46.3664 2.5575 45.4764 1.6675C44.5864 0.7775 43.1364 0.7775 42.2464 1.6675L34.0464 9.8675C33.1564 10.7575 33.1564 12.2075 34.0464 13.0975C34.4964 13.5475 35.0764 13.7675 35.6664 13.7675H35.6564Z" fill="#EF9E00"/>
<path d="M51.1364 15.3769C51.7264 15.3769 52.3064 15.1569 52.7564 14.7069L60.9564 6.50688C61.8464 5.61688 61.8464 4.16688 60.9564 3.27688C60.0664 2.38688 58.6164 2.38688 57.7264 3.27688L49.5264 11.4769C48.6364 12.3669 48.6364 13.8169 49.5264 14.7069C49.9764 15.1569 50.5564 15.3769 51.1464 15.3769H51.1364Z" fill="#EF9E00"/>
<path d="M61.7664 17.9373C62.2164 18.3873 62.7964 18.6073 63.3864 18.6073C63.9764 18.6073 64.5564 18.3873 65.0064 17.9373L73.2064 9.73734C74.0964 8.84734 74.0964 7.39734 73.2064 6.50734C72.3164 5.61734 70.8664 5.61734 69.9764 6.50734L61.7764 14.7073C60.8864 15.5973 60.8864 17.0473 61.7764 17.9373H61.7664Z" fill="#EF9E00"/>
</svg>
